<svg width="101" height="109" viewBox="0 0 101 109" fill="none" xmlns="http://www.w3.org/2000/svg">
<g clip-path="url(#clip0_83_59)">
<path fill-rule="evenodd" clip-rule="evenodd" d="M41.4161 0C30.4494 0 20.4762 1.50023 13.2012 3.93357C12.1767 4.27524 11.2146 4.64306 10.293 5.02733C10.1276 5.09574 9.98029 5.17021 9.81837 5.24013C9.16147 5.52511 8.51999 5.81668 7.92189 6.12293C7.2676 6.45553 6.64369 6.79792 6.06249 7.15418C2.21499 9.51283 0 12.3746 0 15.5585C0 38.5084 0.0509862 61.4572 0.0679941 84.3905V86.0409C0.0679941 91.0742 9.29127 95.2751 13.1246 96.5584C20.3995 98.9918 30.3749 100.492 41.3414 100.492C43.1861 100.492 44.9997 100.445 46.7809 100.363C45.308 98.9281 44.3289 97.1744 43.9254 95.3769C43.914 95.3376 43.9103 95.2975 43.9027 95.2578C43.0743 95.2767 42.2496 95.3009 41.4067 95.3009C35.1401 95.3009 29.2589 94.8 24.0922 93.9083C24.0808 93.9234 24.0657 93.9386 24.0544 93.9533C20.6009 93.36 17.4533 92.6012 14.7477 91.6994C9.2312 89.8577 5.67341 87.66 5.20671 85.4767V70.0666C7.29841 71.4915 9.97531 72.7431 13.1169 73.7931C20.3919 76.2265 30.365 77.7247 41.3317 77.7247C45.29 77.7247 49.1228 77.5328 52.7477 77.1662V77.1155C53.2534 77.0649 53.7268 76.9908 54.2243 76.9337L58.5349 71.1681C53.408 72.0395 47.5949 72.5431 41.3981 72.5431C37.2231 72.5431 33.214 72.3167 29.4724 71.9083C29.4724 71.9235 29.4838 71.9386 29.4838 71.9533C23.8539 71.3348 18.8206 70.2973 14.7592 68.9436C9.24246 67.1019 5.68476 64.9022 5.21816 62.7189V47.3088C7.30976 48.7338 9.98467 49.9854 13.1264 51.0354C20.4014 53.4687 30.3766 54.967 41.3432 54.967C52.3016 54.967 62.2831 53.4603 69.558 51.0354C72.7254 49.9796 75.4284 48.7052 77.5346 47.2678V52.0862L81.0463 47.3908C81.4674 46.8275 82.0573 46.4478 82.7202 46.2365C82.7315 35.993 82.7504 25.755 82.7504 15.51C82.7504 10.71 77.7429 6.63432 69.643 3.92598C62.368 1.501 52.3827 0 41.4161 0ZM41.3341 5.1914C51.7756 5.1914 61.1759 6.59178 67.9259 8.84177C73.8508 10.8168 77.5177 13.2169 77.5177 15.5586C77.5177 17.3003 75.4816 19.0722 72.004 20.6797C70.8494 21.2013 69.5282 21.7178 68.008 22.2246C61.258 24.4829 51.8577 25.875 41.4161 25.875C30.9744 25.875 21.5743 24.4829 14.8243 22.2246C8.89935 20.2496 5.23445 17.8495 5.23445 15.5078C5.23445 13.7678 7.26524 11.9968 10.7364 10.3906C11.8956 9.86536 13.2254 9.34838 14.7422 8.84177C21.4921 6.58343 30.8924 5.1914 41.3341 5.1914ZM77.5411 23.3594V39.4414H77.5185C77.5185 40.5806 76.6352 41.7345 75.0614 42.8457C74.9953 42.8915 74.9401 42.9368 74.8721 42.9825C74.6106 43.1602 74.3079 43.3348 74.0108 43.5099C73.8037 43.6304 73.613 43.7521 73.3897 43.8712C73.2745 43.9335 73.1403 43.9948 73.0205 44.0568C71.6172 44.7737 69.9432 45.4643 68.0107 46.1095C61.2607 48.3678 51.8604 49.7579 41.4189 49.7579C30.9772 49.7579 21.5771 48.3678 14.827 46.1095C8.90206 44.1345 5.23526 41.7324 5.23526 39.3908H5.21032V23.4083C7.30202 24.8333 9.97892 26.0849 13.1206 27.1349C20.3955 29.5682 30.3686 31.0665 41.3353 31.0665C52.2936 31.0665 62.2771 29.5599 69.5522 27.1349C72.7261 26.0769 75.4331 24.8004 77.5411 23.3594ZM84.5176 52.0957C84.3143 52.0844 84.1098 52.0936 83.9084 52.1221C83.1037 52.2385 82.3425 52.6614 81.8244 53.3545L73.1251 64.9854L72.6993 64.6672L72.6842 64.6634C72.194 64.2972 71.6002 64.1618 71.0378 64.2435V64.2548C70.4754 64.3361 69.9433 64.6301 69.5768 65.1201L51.6706 89.0712C50.5349 90.5955 50.1206 92.4441 50.3737 94.1962C50.6265 95.9482 51.5473 97.6049 53.0671 98.7411L54.3678 99.7138L63.2702 106.368L64.3503 107.175C65.8745 108.31 67.7213 108.725 69.4733 108.472C71.2254 108.219 72.8822 107.303 74.0221 105.778L91.9303 81.8271C92.2675 81.3808 92.406 80.8443 92.362 80.3251C92.362 80.2771 92.362 80.228 92.3507 80.1807C92.2687 79.614 91.9717 79.0824 91.4815 78.7159L91.0245 78.3761L99.7198 66.7511C100.216 66.0878 100.411 65.2903 100.331 64.5245C100.331 64.4815 100.331 64.4392 100.316 64.3957C100.2 63.591 99.7757 62.8297 99.0777 62.3078L86.2495 52.718C85.7297 52.3296 85.1274 52.1261 84.5176 52.0957ZM84.2773 54.6934H84.2886C84.4269 54.6745 84.5785 54.7047 84.7026 54.8026L97.5268 64.3905C97.6497 64.4789 97.7215 64.6191 97.7476 64.7654C97.7476 64.7805 97.7589 64.7994 97.7589 64.8164C97.7589 64.9396 97.7249 65.0727 97.6436 65.1815L88.9697 76.7792L75.2354 66.5116L83.9112 54.914C84.0083 54.7896 84.1386 54.7134 84.2773 54.6934ZM83.4237 62.0176C82.9699 61.9987 82.5137 62.1914 82.2246 62.5781L80.6601 64.6738C80.1937 65.2977 80.3214 66.184 80.945 66.6504C81.5647 67.1174 82.4553 66.989 82.9215 66.3654L84.488 64.2697C84.955 63.6503 84.8266 62.7596 84.203 62.2931C83.9694 62.1197 83.6961 62.0301 83.4237 62.0176ZM71.4511 66.9844L89.6248 80.5723L71.951 104.215C71.2442 105.16 70.2093 105.735 69.1191 105.893C68.0245 106.051 66.8752 105.793 65.9296 105.086L64.0136 103.652C63.9557 103.59 63.893 103.532 63.8242 103.48L56.998 98.3768C56.9288 98.3246 56.8551 98.2835 56.7792 98.246L54.6444 96.6523C53.6987 95.9454 53.1242 94.9104 52.9666 93.8203C52.8087 92.7257 53.0668 91.5765 53.7733 90.6308L71.4511 66.9844ZM90.1952 67.0781C89.7419 67.0554 89.2854 67.2527 88.994 67.6425L87.4277 69.7363C86.9613 70.3601 87.089 71.2484 87.7126 71.7148C88.3321 72.1819 89.2229 72.0516 89.6892 71.4276L91.2556 69.3338C91.7226 68.7143 91.5943 67.8236 90.9707 67.3573C90.7382 67.1823 90.4673 67.091 90.1952 67.0781ZM76.2655 79.5331L73.3691 80.7382L73.1075 80.8456L73.2912 80.9824L74.0919 81.582L69.6349 87.5352C69.483 87.1244 69.2732 86.7436 69.0666 86.3848C69.044 86.3398 69.0145 86.2948 68.9907 86.2498C68.5562 85.5043 68.1784 84.8478 68.7193 84.1561C68.8164 84.0359 68.9397 83.9135 69.0982 83.7887L69.0868 83.7736C69.5784 83.8749 70.1065 83.6878 70.4247 83.2619C70.8689 82.6678 70.7494 81.8291 70.1553 81.3849C69.5612 80.9408 68.7204 81.0622 68.2763 81.6563C67.9059 82.1516 67.9286 82.8236 68.2952 83.2872C66.948 84.5064 67.5378 85.5253 68.2151 86.6993C68.5281 87.2459 68.8637 87.8295 68.9417 88.463L68.4573 89.1114C67.7256 88.8151 66.8999 88.9697 66.3558 89.6974C65.8118 90.4251 65.9292 91.6065 66.7171 92.1993C67.5049 92.792 68.6691 92.5659 69.2132 91.838C69.7577 91.1102 69.6774 90.2737 69.183 89.6564L70.7162 87.6075C71.3607 87.4836 72.0365 87.6465 72.6635 87.7988C73.9769 88.117 75.1207 88.3937 75.9057 86.7656L76.5756 87.2656C76.6636 87.328 76.7842 87.3087 76.8469 87.2248L78.2571 85.34C78.3202 85.2516 78.3021 85.1291 78.2182 85.0668L76.3061 83.6293C76.218 83.5669 76.0975 83.5843 76.0347 83.6682L74.6245 85.5549C74.5614 85.6392 74.5795 85.7658 74.6634 85.8282L75.1733 86.209C75.1132 86.3455 75.0519 86.466 74.9798 86.5624C74.4689 87.3072 73.7248 87.1283 72.8782 86.9237C72.8143 86.9124 72.7539 86.8935 72.6908 86.8807C72.2789 86.7812 71.8541 86.6928 71.4134 86.6679L74.8099 82.121L75.8997 82.9355L76.2655 79.5331Z" fill="#831F01"/>
</g>
<defs>
<clipPath id="clip0_83_59">
<rect width="100.348" height="108.543" fill="white"/>
</clipPath>
</defs>
</svg>
