<svg width="167" height="96" viewBox="0 0 167 96" fill="none" xmlns="http://www.w3.org/2000/svg">
<g clip-path="url(#clip0_83_56)">
<path fill-rule="evenodd" clip-rule="evenodd" d="M4.2039 86.997H19.7312C19.224 86.4704 18.9087 85.7584 18.9087 84.9749V2.91625C18.9087 1.31347 20.2221 0 21.825 0H143.866C145.469 0 146.782 1.31347 146.782 2.91625V84.9749C146.782 85.7584 146.467 86.4704 145.96 86.997H162.254C163.412 86.997 164.465 87.4685 165.226 88.2292C165.617 88.6188 165.926 89.0817 166.138 89.5914C166.349 90.101 166.458 90.6474 166.458 91.1991C166.458 91.7509 166.349 92.2972 166.138 92.8068C165.926 93.3164 165.617 93.7793 165.226 94.169C164.465 94.9298 163.412 95.4045 162.254 95.4045H4.2039C3.04648 95.4045 1.99307 94.9298 1.23231 94.169C0.84169 93.7793 0.531763 93.3164 0.320305 92.8068C0.108847 92.2972 0 91.7509 0 91.1991C0 90.6474 0.108847 90.101 0.320305 89.5914C0.531763 89.0817 0.84169 88.6188 1.23231 88.2292C1.99307 87.4685 3.04648 86.997 4.2039 86.997ZM110.214 58.9528C110.431 58.0067 111.381 57.4183 112.327 57.6361C113.273 57.8572 113.861 58.8033 113.643 59.7525L110.2 74.4932C110.094 74.9476 109.812 75.3412 109.416 75.5875C109.02 75.8338 108.542 75.9127 108.087 75.8066C107.862 75.7547 107.649 75.6588 107.461 75.5244C107.272 75.39 107.113 75.2197 106.99 75.0234C106.868 74.8271 106.785 74.6086 106.748 74.3803C106.71 74.1521 106.718 73.9187 106.771 73.6935L110.214 58.9528ZM31.793 26.9258C30.6485 26.9258 29.722 25.9993 29.722 24.8549C29.722 23.7138 30.6485 22.7839 31.793 22.7839H83.9607C85.1018 22.7839 86.0283 23.7138 86.0283 24.8549C86.0283 25.9993 85.1018 26.9258 83.9607 26.9258H31.793ZM31.793 40.1157C30.6485 40.1157 29.722 39.186 29.722 38.0448C29.722 36.9004 30.6485 35.9738 31.793 35.9738H80.0951C81.2361 35.9738 82.1627 36.9004 82.1627 38.0448C82.1627 39.186 81.2361 40.1157 80.0951 40.1157H31.793ZM31.793 66.4921C30.6485 66.4921 29.722 65.5656 29.722 64.4212C29.722 63.2768 30.6485 62.3502 31.793 62.3502H65.8095C66.9507 62.3502 67.8805 63.2768 67.8805 64.4212C67.8805 65.5656 66.9507 66.4921 65.8095 66.4921H31.793ZM31.793 53.3024C31.2441 53.3024 30.7178 53.0843 30.3297 52.6963C29.9416 52.3082 29.7236 51.7818 29.7236 51.233C29.7236 50.6841 29.9416 50.1578 30.3297 49.7697C30.7178 49.3816 31.2441 49.1636 31.793 49.1636H69.1712C69.7201 49.1636 70.2464 49.3816 70.6345 49.7697C71.0226 50.1578 71.2406 50.6841 71.2406 51.233C71.2406 51.7818 71.0226 52.3082 70.6345 52.6963C70.2464 53.0843 69.7201 53.3024 69.1712 53.3024H31.793ZM105.633 25.7457C105.633 24.3445 106.036 23.0473 106.725 21.9386H118.982C119.671 23.0375 120.071 24.3445 120.071 25.7457C120.071 29.7316 116.839 32.9665 112.853 32.9665C108.868 32.9665 105.633 29.7316 105.633 25.7457ZM133.687 26.019V27.5307C133.687 28.945 132.533 30.1024 131.118 30.1024H128.485C128.155 31.5656 127.621 32.9751 126.898 34.2897L128.654 36.0454C129.652 37.0468 129.652 38.682 128.654 39.6801L126.515 41.8227C125.517 42.8208 123.881 42.8208 122.88 41.8227L121.28 40.2198C119.947 41.0488 118.488 41.686 116.937 42.099V44.2837C116.937 45.698 115.776 46.8555 114.365 46.8555H111.342C109.927 46.8555 108.77 45.698 108.77 44.2837V42.1282C107.222 41.7295 105.743 41.1016 104.381 40.2653L102.824 41.8227C101.826 42.8208 100.187 42.8208 99.1889 41.8227L97.0497 39.6834C96.0515 38.682 96.0515 37.0468 97.0497 36.0454L98.7338 34.3645C97.99 33.0289 97.4415 31.5936 97.105 30.1024H94.5886C93.1743 30.1024 92.0169 28.945 92.0169 27.5307V24.5071C92.0169 23.1351 93.1093 22.0038 94.4651 21.9387H103.074C102.671 23.0441 102.453 24.2373 102.453 25.4825C102.453 25.6646 102.453 25.8434 102.468 26.019C102.457 26.1977 102.453 26.3765 102.453 26.5553C102.453 32.2676 107.083 36.9005 112.795 36.9005C118.507 36.9005 123.14 32.2676 123.14 26.5553C123.14 26.3765 123.14 26.1978 123.125 26.019C123.14 25.8432 123.14 25.6644 123.14 25.4825C123.14 24.2373 122.919 23.0441 122.516 21.9387H131.239C132.598 22.0037 133.687 23.1351 133.687 24.5071V26.019ZM104.342 70.6765C105.07 71.317 105.145 72.4288 104.508 73.1571C104.201 73.5077 103.767 73.7221 103.302 73.7532C102.837 73.7843 102.378 73.6296 102.027 73.323L96.0029 68.0464C95.2747 67.4059 95.1999 66.2941 95.837 65.5658L96.0093 65.3935L102.027 60.1234C102.755 59.4828 103.867 59.5576 104.508 60.2893C105.145 61.0176 105.07 62.1294 104.342 62.7699L99.8293 66.7233L104.342 70.6765ZM118.793 73.3228C118.442 73.6294 117.984 73.7841 117.519 73.753C117.054 73.7219 116.62 73.5075 116.313 73.1569C115.675 72.4286 115.75 71.3168 116.479 70.6763L120.991 66.7229L116.479 62.7695C115.75 62.129 115.676 61.0172 116.313 60.2889C116.953 59.5574 118.065 59.4826 118.793 60.123L124.811 65.3931L124.983 65.5654C125.621 66.2937 125.546 67.4056 124.815 68.046L118.793 73.3228ZM142.214 12.1202H23.8927V83.4566H142.214V12.1202ZM38.2562 4.69788C39.2283 4.69788 40.0118 5.48466 40.0118 6.4535C40.0118 7.42231 39.2283 8.2091 38.2562 8.2091C37.2874 8.2091 36.5006 7.42231 36.5006 6.4535C36.5006 5.48466 37.2874 4.69788 38.2562 4.69788ZM32.1213 4.69788C33.0901 4.69788 33.8737 5.48466 33.8737 6.4535C33.8737 7.42231 33.0901 8.2091 32.1213 8.2091C31.1492 8.2091 30.3625 7.42231 30.3625 6.4535C30.3625 5.48466 31.1492 4.69788 32.1213 4.69788ZM25.9832 4.69788C26.952 4.69788 27.7388 5.48466 27.7388 6.4535C27.7388 7.42231 26.952 8.2091 25.9832 8.2091C25.0111 8.2091 24.2276 7.42231 24.2276 6.4535C24.2276 5.48466 25.0111 4.69788 25.9832 4.69788ZM78.4402 89.068H88.0181C88.9154 89.068 89.6502 89.8028 89.6502 90.7001C89.6502 91.5975 88.9154 92.3322 88.0181 92.3322H78.4402C77.5429 92.3322 76.8082 91.5975 76.8082 90.7001C76.8082 89.8028 77.5429 89.068 78.4402 89.068Z" fill="#831F01"/>
</g>
<defs>
<clipPath id="clip0_83_56">
<rect width="166.458" height="95.4045" fill="white"/>
</clipPath>
</defs>
</svg>
