<?xml version="1.0" encoding="UTF-8" standalone="no"?>
<!-- Created with Inkscape (http://www.inkscape.org/) -->

<svg
   width="26.550529mm"
   height="28.718733mm"
   viewBox="0 0 26.55053 28.718733"
   version="1.1"
   id="svg1"
   inkscape:version="1.3.2 (091e20e, 2023-11-25, custom)"
   sodipodi:docname="graphic-08-bouton-4.svg"
   xmlns:inkscape="http://www.inkscape.org/namespaces/inkscape"
   xmlns:sodipodi="http://sodipodi.sourceforge.net/DTD/sodipodi-0.dtd"
   xmlns="http://www.w3.org/2000/svg"
   xmlns:svg="http://www.w3.org/2000/svg">
  <sodipodi:namedview
     id="namedview1"
     pagecolor="#ffffff"
     bordercolor="#666666"
     borderopacity="1.0"
     inkscape:showpageshadow="2"
     inkscape:pageopacity="0.0"
     inkscape:pagecheckerboard="0"
     inkscape:deskcolor="#d1d1d1"
     inkscape:document-units="mm"
     inkscape:zoom="6.0849846"
     inkscape:cx="49.301686"
     inkscape:cy="56.779108"
     inkscape:window-width="1920"
     inkscape:window-height="1017"
     inkscape:window-x="-8"
     inkscape:window-y="-8"
     inkscape:window-maximized="1"
     inkscape:current-layer="layer1" />
  <defs
     id="defs1" />
  <g
     inkscape:label="Layer 1"
     inkscape:groupmode="layer"
     id="layer1"
     transform="translate(-96.837765,-120.12084)">
    <path
       id="path1-1"
       style="clip-rule:evenodd;fill-rule:evenodd;stroke-width:0.220486"
       class="st0"
       d="m 107.79577,120.12084 c -2.9016,0 -5.54034,0.39694 -7.46519,1.04076 -0.27106,0.0904 -0.525619,0.18772 -0.769459,0.28939 -0.04376,0.0181 -0.08273,0.0378 -0.125571,0.0563 -0.173805,0.0754 -0.343535,0.15255 -0.501783,0.23358 -0.173116,0.088 -0.33819,0.17859 -0.491966,0.27285 -1.017984,0.62406 -1.604036,1.38124 -1.604036,2.22363 0,6.07218 0.01349,12.14404 0.01799,18.21181 v 0.43667 c 0,1.33173 2.440332,2.44323 3.454565,2.78277 1.92481,0.64382 4.56414,1.04077 7.46569,1.04077 0.48808,0 0.96793,-0.0124 1.4392,-0.0341 -0.3897,-0.37968 -0.64876,-0.84371 -0.75552,-1.3193 -0.003,-0.0104 -0.004,-0.021 -0.006,-0.0315 -0.21918,0.005 -0.43738,0.0114 -0.6604,0.0114 -1.65804,0 -3.2141,-0.13253 -4.58113,-0.36845 -0.003,0.004 -0.007,0.008 -0.01,0.0119 -0.91373,-0.15698 -1.74654,-0.35774 -2.46239,-0.59635 -1.459578,-0.48727 -2.400912,-1.06874 -2.524393,-1.64641 v -4.07727 c 0.553429,0.37703 1.261692,0.70818 2.092903,0.98599 1.92485,0.64382 4.56356,1.04024 7.46517,1.04024 1.0473,0 2.0614,-0.0508 3.02048,-0.14779 v -0.0134 c 0.1338,-0.0134 0.25906,-0.033 0.39069,-0.0481 l 1.14051,-1.52549 c -1.35649,0.23056 -2.89454,0.3638 -4.53411,0.3638 -1.10464,0 -2.16538,-0.0599 -3.15534,-0.16795 0,0.004 0.003,0.008 0.003,0.0119 -1.48957,-0.16366 -2.8213,-0.43815 -3.89588,-0.79633 -1.459628,-0.48728 -2.400937,-1.06926 -2.524391,-1.64693 v -4.07727 c 0.553402,0.37703 1.261136,0.70818 2.092381,0.98599 1.92484,0.64381 4.56411,1.04024 7.46569,1.04024 2.89941,0 5.54035,-0.39863 7.46517,-1.04024 0.83804,-0.27934 1.55321,-0.61653 2.11047,-0.99684 v 1.27486 l 0.92914,-1.2423 c 0.11144,-0.14905 0.26749,-0.24952 0.44289,-0.30541 0.003,-2.71026 0.008,-5.41908 0.008,-8.12974 0,-1.27 -1.3249,-2.34835 -3.468,-3.06493 -1.92484,-0.64161 -4.56618,-1.03818 -7.46776,-1.03818 z m -0.0217,1.37356 c 2.76267,0 5.24981,0.37052 7.03575,0.96583 1.56765,0.52255 2.53783,1.15759 2.53783,1.77715 0,0.46084 -0.5387,0.92966 -1.45881,1.35496 -0.30549,0.13802 -0.65508,0.27468 -1.0573,0.40876 -1.78594,0.59752 -4.27308,0.96583 -7.03575,0.96583 -2.7627,0 -5.24981,-0.36831 -7.03575,-0.96583 -1.567652,-0.52255 -2.537324,-1.15759 -2.537324,-1.77715 0,-0.46038 0.537316,-0.92896 1.455738,-1.35392 0.306705,-0.13898 0.658546,-0.27576 1.059866,-0.4098 1.78591,-0.59752 4.27305,-0.96583 7.03575,-0.96583 z m 9.57979,4.80694 v 4.25504 h -0.006 c 0,0.30142 -0.2337,0.6067 -0.65008,0.90072 -0.0175,0.0121 -0.0321,0.0241 -0.0501,0.0362 -0.0692,0.047 -0.14927,0.0932 -0.22788,0.13953 -0.0548,0.0319 -0.10525,0.0641 -0.16433,0.0956 -0.0305,0.0165 -0.066,0.0327 -0.0977,0.0491 -0.37127,0.18968 -0.8142,0.37242 -1.32551,0.54312 -1.78594,0.59752 -4.27308,0.96532 -7.03575,0.96532 -2.7627,0 -5.24981,-0.3678 -7.03575,-0.96532 -1.567652,-0.52255 -2.537826,-1.15811 -2.537826,-1.77767 h -0.0066 v -4.22868 c 0.553429,0.37703 1.261692,0.70817 2.092916,0.98599 1.92484,0.64381 4.56356,1.04024 7.46516,1.04024 2.89938,0 5.54085,-0.39863 7.4657,-1.04024 0.83978,-0.27993 1.55635,-0.61763 2.11409,-0.99891 z m 1.84587,7.60315 c -0.0538,-0.003 -0.10792,-5.3e-4 -0.16121,0.007 -0.21291,0.0308 -0.41429,0.14268 -0.55139,0.32608 l -2.30169,3.07733 -0.11264,-0.0842 -0.004,-0.001 c -0.1297,-0.0969 -0.28681,-0.13272 -0.43561,-0.1111 v 0.003 c -0.1488,0.0215 -0.28959,0.0993 -0.38656,0.22892 l -4.73768,6.33708 c -0.30048,0.4033 -0.4101,0.89242 -0.34314,1.35599 0.0669,0.46355 0.31052,0.90188 0.71263,1.20251 l 0.34415,0.25735 2.35542,1.76062 0.28578,0.21342 c 0.40328,0.30048 0.89191,0.4101 1.35546,0.34313 0.46358,-0.0669 0.90194,-0.30917 1.20354,-0.71261 l 4.73821,-6.33708 c 0.0892,-0.11808 0.12586,-0.26003 0.11422,-0.3974 0,-0.0127 0,-0.0257 -0.003,-0.0382 -0.0217,-0.14995 -0.10027,-0.2906 -0.22997,-0.38757 l -0.12092,-0.0899 2.30063,-3.07578 c 0.13124,-0.17551 0.18291,-0.38651 0.16174,-0.58911 0,-0.0114 0,-0.0226 -0.004,-0.0341 -0.0308,-0.2129 -0.14293,-0.41433 -0.32763,-0.55242 l -3.39413,-2.53731 c -0.13753,-0.10275 -0.29705,-0.15577 -0.45837,-0.16382 z m -0.0636,0.6873 h 0.003 c 0.0366,-0.005 0.0767,0.003 0.10954,0.0289 l 3.39307,2.5368 c 0.0325,0.0234 0.0515,0.0605 0.0584,0.0992 0,0.004 0.003,0.009 0.003,0.0135 0,0.0326 -0.009,0.0678 -0.0305,0.0966 l -2.29497,3.06855 -3.63387,-2.71663 2.29547,-3.06855 c 0.0257,-0.0329 0.061,-0.0531 0.0977,-0.0584 z m -0.22583,1.93787 c -0.12009,-0.005 -0.24079,0.046 -0.31728,0.14831 l -0.41394,0.55449 c -0.12338,0.16507 -0.0896,0.39958 0.0754,0.52296 0.16394,0.12358 0.39958,0.0896 0.52295,-0.0754 l 0.41445,-0.55449 c 0.12356,-0.16388 0.0896,-0.39955 -0.0754,-0.52296 -0.0618,-0.0459 -0.13414,-0.0696 -0.20619,-0.0729 z m -3.16777,1.31413 4.80848,3.59513 -4.67619,6.25543 c -0.18703,0.25021 -0.46085,0.40225 -0.7493,0.4439 -0.28959,0.0418 -0.5937,-0.0264 -0.84389,-0.21342 l -0.50694,-0.37931 c -0.0153,-0.0165 -0.0319,-0.0318 -0.0501,-0.0455 l -1.8061,-1.35031 c -0.0183,-0.0138 -0.0378,-0.0247 -0.0579,-0.0346 l -0.56481,-0.42168 c -0.25022,-0.18704 -0.40224,-0.46087 -0.44392,-0.74931 -0.0418,-0.28959 0.0265,-0.59365 0.21344,-0.84388 z m 4.9594,0.0248 c -0.11996,-0.006 -0.24072,0.0462 -0.31782,0.14934 l -0.41444,0.55398 c -0.12338,0.16505 -0.0896,0.40009 0.0754,0.52348 0.16391,0.12358 0.3996,0.0891 0.52298,-0.076 l 0.41444,-0.55397 c 0.12356,-0.16393 0.0896,-0.39958 -0.0754,-0.52296 -0.0615,-0.0463 -0.13319,-0.0705 -0.20516,-0.0739 z m -3.68557,3.2954 -0.76636,0.31885 -0.0692,0.0284 0.0486,0.0362 0.21186,0.15865 -1.17925,1.5751 c -0.0402,-0.10868 -0.0957,-0.20943 -0.15036,-0.30437 -0.006,-0.0119 -0.0138,-0.0238 -0.0201,-0.0357 -0.11496,-0.19725 -0.21492,-0.37095 -0.0718,-0.55397 0.0257,-0.0318 0.0583,-0.0642 0.10025,-0.0972 l -0.003,-0.004 c 0.13007,0.0268 0.26977,-0.0227 0.35398,-0.13539 0.11751,-0.15719 0.0859,-0.37909 -0.0713,-0.49661 -0.15719,-0.11752 -0.37963,-0.0854 -0.49713,0.0718 -0.098,0.13103 -0.092,0.30884 0.005,0.43149 -0.35645,0.32258 -0.20042,0.59217 -0.0212,0.90279 0.0828,0.14464 0.17161,0.29903 0.19225,0.46664 l -0.12816,0.17157 c -0.1936,-0.0784 -0.41207,-0.0375 -0.55603,0.15503 v 5.2e-4 c -0.14393,0.19256 -0.11287,0.50461 0.0956,0.66146 0.20844,0.15683 0.51646,0.097 0.66042,-0.0956 0.14407,-0.19257 0.12282,-0.41387 -0.008,-0.57722 l 0.40566,-0.54209 c 0.17053,-0.0328 0.34933,0.0103 0.51522,0.0506 0.34751,0.0842 0.65014,0.15742 0.85784,-0.27336 l 0.17724,0.13229 c 0.0233,0.0165 0.0552,0.0114 0.0718,-0.0108 l 0.37311,-0.49868 c 0.0167,-0.0234 0.0119,-0.0558 -0.0103,-0.0723 l -0.50591,-0.38034 c -0.0233,-0.0165 -0.0552,-0.0119 -0.0718,0.0103 l -0.37312,0.4992 c -0.0167,0.0223 -0.0119,0.0558 0.0103,0.0723 l 0.13489,0.10077 c -0.0159,0.0361 -0.0321,0.068 -0.0512,0.0935 -0.13515,0.19705 -0.33203,0.14973 -0.55603,0.0956 -0.0169,-0.003 -0.0329,-0.008 -0.0496,-0.0114 -0.10898,-0.0263 -0.22135,-0.0497 -0.33797,-0.0563 l 0.89865,-1.20302 0.28835,0.21549 z" />
  </g>
</svg>
