<svg width="142" height="97" viewBox="0 0 142 97" fill="none" xmlns="http://www.w3.org/2000/svg">
<path d="M123.137 57.1464H117.913V51.921H123.137V57.1464ZM81.7644 38.8166C81.6492 38.8166 81.5452 38.828 81.4299 38.828H1.86796C1.75265 38.828 1.63734 38.828 1.53359 38.8166C1.15307 38.8866 0.807139 39.0703 0.553469 39.3357C0.207529 39.6702 0 40.1432 0 40.6508V62.8796C0 63.3872 0.207525 63.8602 0.553469 64.1946C0.899409 64.5291 1.3606 64.7483 1.86796 64.7483H81.43C81.9374 64.7483 82.4101 64.5291 82.7446 64.1946C83.0904 63.8602 83.298 63.3872 83.298 62.8796V40.6508C83.298 40.1432 83.0905 39.6817 82.7446 39.3357C82.4792 39.0704 82.1449 38.8858 81.7644 38.8166ZM73.1048 45.2072L74.3617 46.4647C74.6962 46.7992 74.6962 47.3413 74.3617 47.6758L73.347 48.6911C73.6354 49.2217 73.8428 49.7868 73.9812 50.3751H75.2957C75.7685 50.3751 76.149 50.7558 76.149 51.2288V53.0167C76.149 53.4896 75.7685 53.8703 75.2957 53.8703H73.8543C73.6812 54.4472 73.4277 55.0009 73.1049 55.5085L74.0389 56.4429C74.3734 56.7773 74.3734 57.3196 74.0389 57.6541L72.782 58.9115C72.4475 59.2459 71.9056 59.2459 71.5712 58.9115L70.5565 57.8962C70.0261 58.1846 69.4611 58.3923 68.8731 58.5308V59.8457C68.8731 60.3187 68.4926 60.6993 68.0198 60.6993H66.2325C65.7598 60.6993 65.3792 60.3187 65.3792 59.8457V58.4038C64.8027 58.2307 64.2492 57.9771 63.7419 57.6541L62.8079 58.5883C62.4734 58.9228 61.9315 58.9228 61.5972 58.5883L60.3404 57.331C60.0059 56.9966 60.0059 56.4543 60.3404 56.1197L61.355 55.1047C61.0667 54.574 60.8592 54.0089 60.7208 53.4205H59.4063C58.9336 53.4205 58.553 53.0399 58.553 52.567V50.7788C58.553 50.306 58.9336 49.9253 59.4063 49.9253H60.8477C61.0208 49.3485 61.2743 48.7948 61.5972 48.2871L60.6632 47.3529C60.3287 47.0184 60.3287 46.4761 60.6632 46.1418L61.92 44.8844C62.2545 44.5499 62.7964 44.5499 63.1308 44.8844L64.1455 45.8993C64.6643 45.6227 65.2293 45.4034 65.8289 45.2649V43.9499C65.8289 43.477 66.2094 43.0963 66.6822 43.0963H68.4695C68.9423 43.0963 69.3228 43.477 69.3228 43.9499V45.3919C69.8993 45.565 70.4528 45.8187 70.9601 46.1418L71.8941 45.2072C72.2286 44.8727 72.7704 44.8727 73.1048 45.2072ZM67.351 48.3795C69.2882 48.3795 70.8563 49.9483 70.8563 51.8862C70.8563 53.8242 69.2882 55.3931 67.351 55.3931C65.4138 55.3931 63.8457 53.8242 63.8457 51.8862C63.8457 49.9598 65.4138 48.3795 67.351 48.3795ZM81.7644 70.7352C81.6492 70.7352 81.5452 70.7465 81.4299 70.7465H1.86796C1.75265 70.7465 1.63734 70.7465 1.53359 70.7352C1.15307 70.8043 0.807139 71.0005 0.553469 71.2542C0.207529 71.6004 0 72.0616 0 72.5692V94.7979C0 95.3055 0.207525 95.7785 0.553469 96.1131C0.899409 96.4476 1.3606 96.6668 1.86796 96.6668H81.43C81.9374 96.6668 82.4101 96.4476 82.7446 96.1131C83.0904 95.7786 83.298 95.3055 83.298 94.7979V72.5692C83.298 72.0616 83.0905 71.6003 82.7446 71.2542C82.4792 71.0006 82.1449 70.8044 81.7644 70.7352ZM7.92158 77.6333H12.5915V89.734H7.92158V77.6333ZM20.8475 77.6333H25.5175V89.734H20.8475V77.6333ZM33.7735 77.6333H38.4434V89.734H33.7735V77.6333ZM7.92158 45.715H12.5915V57.8154H7.92158V45.715ZM20.8475 45.715H25.5175V57.8154H20.8475V45.715ZM33.7735 45.715H38.4434V57.8154H33.7735V45.715ZM137.077 30.7996C137.135 30.7996 137.204 30.7996 137.25 30.8109C137.643 30.1304 138 29.4037 138.334 28.6423C138.346 28.6309 138.346 28.6196 138.357 28.6082C138.841 27.4548 139.222 26.2666 139.464 25.0207C139.648 24.0518 139.775 23.0828 139.822 22.0676H134.01C133.906 25.0207 133.018 27.9276 131.381 30.8L137.077 30.7996ZM136.063 32.6568H130.217C128.441 35.2291 126.042 37.7669 123.056 40.2816C123.529 40.2125 123.99 40.1433 124.451 40.0511C125.708 39.7971 126.907 39.4282 128.083 38.9206C129.26 38.4131 130.366 37.8132 131.393 37.1327C132.419 36.452 133.353 35.6792 134.229 34.8024C134.898 34.1333 135.521 33.4182 136.086 32.6569L136.063 32.6568ZM118.063 40.2816C115.065 37.7669 112.678 35.2291 110.903 32.6568H105.057C105.61 33.4181 106.233 34.1332 106.913 34.8023C107.789 35.6791 108.723 36.4519 109.75 37.1326C110.764 37.8131 111.871 38.413 113.059 38.9206C113.07 38.9319 113.082 38.9319 113.093 38.9432C114.246 39.4277 115.434 39.8083 116.679 40.0505C117.14 40.1423 117.601 40.2123 118.074 40.2815L118.063 40.2816ZM103.834 30.7996H109.715C108.078 27.9273 107.19 25.0204 107.086 22.0672H101.274C101.321 23.0825 101.436 24.0629 101.632 25.0203C101.886 26.2777 102.255 27.4773 102.762 28.654C103.085 29.4038 103.442 30.119 103.834 30.7996ZM101.286 20.2216H107.132C107.351 17.3262 108.308 14.4193 110.026 11.4892H103.834C103.442 12.1698 103.085 12.885 102.773 13.6348C102.762 13.6462 102.762 13.6575 102.751 13.6689C102.266 14.8224 101.886 16.0106 101.644 17.2564C101.448 18.2253 101.321 19.2064 101.286 20.2216ZM105.045 9.64357H111.225C112.99 7.10577 115.307 4.55648 118.202 1.99562C117.683 2.05345 117.175 2.13396 116.679 2.2379C115.423 2.4915 114.223 2.86081 113.047 3.36836C111.871 3.87591 110.764 4.47575 109.738 5.15637C108.712 5.83695 107.778 6.60983 106.901 7.48653C106.233 8.15559 105.61 8.87075 105.045 9.6321V9.64357ZM122.906 1.99562C125.812 4.55648 128.13 7.10577 129.882 9.64357H136.063C135.509 8.88223 134.887 8.16706 134.206 7.49801C133.33 6.62131 132.396 5.84843 131.37 5.16781C130.355 4.48723 129.248 3.88741 128.06 3.3799C128.049 3.36856 128.038 3.36854 128.026 3.3572C126.873 2.87271 125.686 2.49203 124.44 2.2498C123.933 2.14587 123.426 2.07669 122.918 2.00753V1.9962L122.906 1.99562ZM137.262 11.4892H131.07C132.776 14.4193 133.745 17.3262 133.964 20.2216H139.81C139.764 19.2064 139.649 18.2259 139.453 17.2685C139.199 16.0112 138.83 14.8114 138.323 13.6348C138.011 12.885 137.654 12.1814 137.262 11.4892ZM116.299 0.41526C117.671 0.138221 119.089 0 120.542 0C121.995 0 123.413 0.138334 124.786 0.41526C126.146 0.680583 127.449 1.0843 128.729 1.638C128.74 1.638 128.763 1.64936 128.775 1.66069C130.044 2.20287 131.243 2.86039 132.373 3.61018C133.503 4.35996 134.541 5.22513 135.498 6.17103C136.466 7.11693 137.308 8.16666 138.057 9.29712C138.818 10.4276 139.464 11.6273 140.006 12.8962C140.56 14.1881 140.975 15.5262 141.251 16.8874C141.528 18.2601 141.667 19.679 141.667 21.1324C141.667 22.5859 141.528 24.0049 141.251 25.3776C140.986 26.7388 140.583 28.0423 140.029 29.3227C140.029 29.3341 140.018 29.3567 140.007 29.3684C139.465 30.6488 138.807 31.837 138.058 32.9675C137.308 34.0979 136.444 35.1361 135.498 36.0936C134.553 37.0626 133.503 37.9047 132.373 38.6545C131.243 39.4158 130.044 40.0618 128.776 40.604C127.484 41.1577 126.147 41.5729 124.786 41.8498C123.414 42.1264 121.996 42.2651 120.543 42.2651C119.09 42.2651 117.672 42.1267 116.299 41.8498C114.939 41.5845 113.636 41.1807 112.356 40.627C112.345 40.627 112.322 40.6157 112.31 40.6044C111.041 40.0622 109.842 39.4047 108.712 38.6549C107.582 37.9051 106.544 37.04 105.587 36.094C104.619 35.1481 103.777 34.0984 103.027 32.9679C102.266 31.8374 101.621 30.6377 101.079 29.3688C100.525 28.0769 100.11 26.7389 99.8335 25.3776C99.5568 24.005 99.4184 22.5859 99.4184 21.1324C99.4184 19.679 99.5567 18.2602 99.8335 16.8875C100.099 15.5263 100.502 14.2228 101.056 12.9424C101.056 12.931 101.067 12.9084 101.078 12.8963C101.62 11.6158 102.278 10.4277 103.027 9.29726C103.777 8.16677 104.641 7.12861 105.587 6.17114C106.532 5.20219 107.582 4.36011 108.712 3.61029C109.842 2.84898 111.041 2.20298 112.309 1.66081C113.601 1.10711 114.927 0.692111 116.299 0.41526ZM121.476 3.19529V9.64357H127.611C126.008 7.50954 123.967 5.36395 121.476 3.19529ZM121.476 11.4892V20.2216H132.119C131.877 17.3492 130.816 14.4538 128.914 11.4892H121.476ZM121.476 22.0787V30.8111H129.225C131.058 27.9157 132.038 25.0088 132.154 22.0787H121.476ZM121.476 32.6568V39.1744C124.105 37.0172 126.262 34.837 127.933 32.6568H121.476ZM119.62 39.1744V32.6568H113.163C114.835 34.837 116.991 37.0172 119.62 39.1744ZM119.62 30.7996V22.0672H108.942C109.058 24.9973 110.049 27.9042 111.871 30.7996H119.62ZM119.62 20.2216V11.4892H112.194C110.291 14.4423 109.231 17.3492 108.989 20.2216H119.62ZM119.62 9.64357V3.19529C117.129 5.36395 115.088 7.50954 113.485 9.64357H119.62ZM29.1035 26.0009H23.8801V20.7752H29.1035V26.0009ZM29.1035 15.5382H23.8801V12.7351V10.1281H26.4976H28.9306V12.7466H29.1151V15.5382H29.1035ZM34.1425 15.3537V10.1282H39.3659V15.3537H34.1425ZM44.6009 15.3537V10.1282H49.8243V15.3537H44.6009ZM55.0592 15.3537V10.1282H60.2826V15.3537H55.0592ZM65.5176 15.3537V10.1282H70.741V15.3537H65.5176ZM75.976 15.3537V10.1282H81.1994V15.3537H75.976ZM86.4344 15.3537V10.1282H91.6578V15.3537H86.4344ZM96.4776 88.0153V82.7898H101.701V88.0153H96.4776ZM106.936 88.0153V82.7898H112.159V88.0153H106.936ZM117.394 88.0153V82.7898H120.519V83.2973H123.137V85.3968V88.0153H120.519H117.394ZM123.137 78.0718H117.913V72.8463H123.137V78.0718ZM123.137 67.6092H117.913V62.3836H123.137V67.6092Z" fill="#831F01"/>
</svg>
