<?xml version="1.0" encoding="UTF-8" standalone="no"?>
<!-- Created with Inkscape (http://www.inkscape.org/) -->

<svg
   width="44.042065mm"
   height="25.24243mm"
   viewBox="0 0 44.042065 25.24243"
   version="1.1"
   id="svg1"
   inkscape:version="1.3.2 (091e20e, 2023-11-25, custom)"
   sodipodi:docname="graphic-07-bouton-3.svg"
   xmlns:inkscape="http://www.inkscape.org/namespaces/inkscape"
   xmlns:sodipodi="http://sodipodi.sourceforge.net/DTD/sodipodi-0.dtd"
   xmlns="http://www.w3.org/2000/svg"
   xmlns:svg="http://www.w3.org/2000/svg">
  <sodipodi:namedview
     id="namedview1"
     pagecolor="#ffffff"
     bordercolor="#666666"
     borderopacity="1.0"
     inkscape:showpageshadow="2"
     inkscape:pageopacity="0.0"
     inkscape:pagecheckerboard="0"
     inkscape:deskcolor="#d1d1d1"
     inkscape:document-units="mm"
     inkscape:zoom="6.0849846"
     inkscape:cx="83.319849"
     inkscape:cy="47.740466"
     inkscape:window-width="1920"
     inkscape:window-height="1017"
     inkscape:window-x="-8"
     inkscape:window-y="-8"
     inkscape:window-maximized="1"
     inkscape:current-layer="layer1" />
  <defs
     id="defs1" />
  <g
     inkscape:label="Layer 1"
     inkscape:groupmode="layer"
     id="layer1"
     transform="translate(-87.841943,-122.50209)">
    <path
       d="m 88.954222,145.52004 h 4.108273 c -0.134189,-0.13933 -0.21762,-0.32771 -0.21762,-0.53501 v -21.71135 c 0,-0.42407 0.347509,-0.77159 0.771591,-0.77159 h 32.290014 c 0.42408,0 0.77159,0.34752 0.77159,0.77159 v 21.71135 c 0,0.2073 -0.0834,0.39568 -0.21762,0.53501 h 4.3113 c 0.30623,0 0.58493,0.12475 0.78621,0.32602 a 1.1099101,1.1099101 0 0 1 0,1.57157 c -0.20128,0.2013 -0.47998,0.32689 -0.78621,0.32689 H 88.954222 c -0.306234,0 -0.584951,-0.12559 -0.786233,-0.32689 a 1.1099101,1.1099101 0 0 1 0,-1.57157 c 0.201282,-0.20127 0.479999,-0.32602 0.786233,-0.32602 z m 28.048388,-7.42003 c 0.0576,-0.25032 0.30879,-0.406 0.55911,-0.34838 0.25032,0.0585 0.40602,0.30883 0.34839,0.55997 l -0.91096,3.90014 a 0.46553773,0.46553773 0 0 1 -0.55911,0.34753 0.46502161,0.46502161 0 0 1 -0.34839,-0.55912 z m -20.748777,-8.47379 c -0.302795,0 -0.547952,-0.24516 -0.547952,-0.54793 0,-0.30193 0.245157,-0.54795 0.547952,-0.54795 h 13.802697 c 0.30193,0 0.54707,0.24602 0.54707,0.54795 0,0.30277 -0.24514,0.54793 -0.54707,0.54793 z m 0,3.48981 c -0.302795,0 -0.547952,-0.24598 -0.547952,-0.54793 0,-0.30279 0.245157,-0.54795 0.547952,-0.54795 h 12.779927 c 0.30191,0 0.54707,0.24516 0.54707,0.54795 0,0.30195 -0.24516,0.54793 -0.54707,0.54793 z m 0,6.97878 c -0.302795,0 -0.547952,-0.24516 -0.547952,-0.54795 0,-0.30279 0.245157,-0.54795 0.547952,-0.54795 h 9.000217 c 0.30194,0 0.54795,0.24516 0.54795,0.54795 0,0.30279 -0.24601,0.54795 -0.54795,0.54795 z m 0,-3.4898 a 0.54753,0.54753 0 1 1 0,-1.09506 h 9.889657 a 0.54753,0.54753 0 1 1 0,1.09506 z m 19.536747,-7.29104 c 0,-0.37073 0.10667,-0.71396 0.28903,-1.00729 h 3.24293 c 0.18237,0.29075 0.28818,0.63656 0.28818,1.00729 0,1.05461 -0.85505,1.9105 -1.90963,1.9105 -1.05461,0 -1.91051,-0.85589 -1.91051,-1.9105 z m 7.42264,0.0723 v 0.39998 c 0,0.37419 -0.30537,0.68042 -0.67956,0.68042 h -0.69676 a 4.2364622,4.2364622 0 0 1 -0.41978,1.10792 l 0.46452,0.4645 c 0.26407,0.26495 0.26407,0.69763 0,0.96171 l -0.56601,0.56687 c -0.2641,0.26408 -0.69676,0.26408 -0.96172,0 l -0.4232,-0.42408 c -0.35269,0.21934 -0.73891,0.38793 -1.14922,0.49721 v 0.57803 c 0,0.3742 -0.30709,0.68043 -0.68042,0.68043 h -0.79999 c -0.37418,0 -0.68042,-0.30623 -0.68042,-0.68043 v -0.57031 a 4.240763,4.240763 0 0 1 -1.16125,-0.49289 l -0.41202,0.41204 c -0.2641,0.26408 -0.69762,0.26408 -0.96172,0 l -0.56599,-0.566 c -0.2641,-0.26495 -0.2641,-0.69763 0,-0.96258 l 0.44558,-0.44471 a 4.2334515,4.2334515 0 0 1 -0.43096,-1.12771 h -0.6658 c -0.37419,0 -0.68042,-0.30623 -0.68042,-0.68042 v -0.79999 c 0,-0.36301 0.28903,-0.66234 0.64774,-0.67956 h 2.2778 c -0.10667,0.29247 -0.16431,0.60816 -0.16431,0.93762 0,0.0482 0,0.0955 0.004,0.14195 -0.003,0.0473 -0.004,0.0946 -0.004,0.14192 0,1.51137 1.22491,2.73714 2.73628,2.73714 1.51137,0 2.73716,-1.22577 2.73716,-2.73714 0,-0.0473 0,-0.0946 -0.004,-0.14192 0.004,-0.0465 0.004,-0.0938 0.004,-0.14195 0,-0.32946 -0.0585,-0.64515 -0.16517,-0.93762 h 2.3079 c 0.35956,0.0172 0.64774,0.31655 0.64774,0.67956 z m -7.76413,11.81563 c 0.19268,0.16947 0.21246,0.46363 0.0439,0.65633 a 0.46553773,0.46553773 0 0 1 -0.65634,0.0439 l -1.59394,-1.3961 c -0.19268,-0.16946 -0.21246,-0.46363 -0.0439,-0.65632 l 0.0456,-0.0456 1.59222,-1.39438 c 0.19269,-0.16947 0.48688,-0.14968 0.65634,0.0439 0.16859,0.19269 0.14881,0.48686 -0.0439,0.65632 l -1.19395,1.04601 z m 3.82356,0.70019 a 0.46553773,0.46553773 0 0 1 -0.65632,-0.0439 c -0.16861,-0.1927 -0.14881,-0.48686 0.0439,-0.65633 l 1.19396,-1.046 -1.19396,-1.04601 c -0.19268,-0.16946 -0.21248,-0.46363 -0.0439,-0.65632 0.16946,-0.19355 0.46364,-0.21334 0.65632,-0.0439 l 1.59224,1.39438 0.0456,0.0456 c 0.16861,0.19269 0.14883,0.48686 -0.0447,0.65632 z M 125.4695,125.7089 H 94.163558 v 18.87441 H 125.4695 Z m -27.505599,-1.96383 c 0.257196,0 0.464497,0.20817 0.464497,0.46451 0,0.25633 -0.207301,0.4645 -0.464497,0.4645 -0.256336,0 -0.464497,-0.20817 -0.464497,-0.4645 0,-0.25634 0.208161,-0.46451 0.464497,-0.46451 z m -1.623197,0 c 0.256338,0 0.463661,0.20817 0.463661,0.46451 0,0.25633 -0.207323,0.4645 -0.463661,0.4645 -0.257197,0 -0.465358,-0.20817 -0.465358,-0.4645 0,-0.25634 0.208161,-0.46451 0.465358,-0.46451 z m -1.624034,0 c 0.256336,0 0.464497,0.20817 0.464497,0.46451 0,0.25633 -0.208161,0.4645 -0.464497,0.4645 -0.257196,0 -0.464521,-0.20817 -0.464521,-0.4645 0,-0.25634 0.207325,-0.46451 0.464521,-0.46451 z m 13.87925,22.32292 h 2.53413 c 0.23742,0 0.43183,0.19442 0.43183,0.43183 0,0.23743 -0.19441,0.43182 -0.43183,0.43182 h -2.53413 c -0.23742,0 -0.43182,-0.19439 -0.43182,-0.43182 0,-0.23741 0.1944,-0.43183 0.43182,-0.43183 z"
       id="path1-9"
       style="clip-rule:evenodd;fill-rule:evenodd;stroke-width:0.0860195;image-rendering:optimizeQuality;shape-rendering:geometricPrecision;text-rendering:geometricPrecision" />
  </g>
</svg>
