<svg width="103" height="92" viewBox="0 0 103 92" fill="none" xmlns="http://www.w3.org/2000/svg">
<path fill-rule="evenodd" clip-rule="evenodd" d="M41.8417 32.0899C44.6702 32.0965 47.4333 32.9412 49.7819 34.5174C52.1305 36.0937 53.9593 38.3306 55.0371 40.9457C56.115 43.5608 56.3936 46.4367 55.8377 49.21C55.2819 51.9833 53.9165 54.5297 51.9142 56.5275C49.9118 58.5252 47.3622 59.8846 44.5876 60.434C41.813 60.9834 38.9378 60.6981 36.3252 59.6142C33.7126 58.5303 31.4799 56.6963 29.9092 54.344C28.3384 51.9918 27.5001 49.2267 27.5001 46.3982C27.5 44.5164 27.8713 42.6531 28.5924 40.9149C29.3135 39.1768 30.3705 37.598 31.7027 36.2689C33.0348 34.9398 34.6161 33.8865 36.3559 33.1694C38.0958 32.4523 39.9599 32.0855 41.8417 32.0899ZM76.0918 78.2815V71.0148H56.2168C57.943 69.454 59.5168 67.7324 60.9168 65.8732H78.6501C79.3287 65.8754 79.979 66.1454 80.4596 66.6245C80.9403 67.1035 81.2124 67.753 81.2168 68.4316V78.2815C82.8742 78.8841 84.2662 80.0514 85.1484 81.5784C86.0306 83.1054 86.3465 84.8944 86.0406 86.6312C85.7346 88.368 84.8265 89.9414 83.4757 91.0751C82.1249 92.2088 80.4178 92.8302 78.6542 92.8302C76.8907 92.8302 75.1836 92.2088 73.8328 91.0751C72.482 89.9414 71.5739 88.368 71.2679 86.6312C70.962 84.8944 71.2779 83.1054 72.1601 81.5784C73.0423 80.0514 74.4344 78.8841 76.0918 78.2815ZM74.3001 25.5398H62.9251C61.8207 23.7249 60.5634 22.0076 59.1668 20.4066H71.7417V14.5732C70.0786 13.9868 68.6753 12.8331 67.7783 11.3148C66.8813 9.79646 66.548 8.01058 66.837 6.27093C67.126 4.53126 68.0188 2.94909 69.3585 1.80232C70.6982 0.655542 72.3992 0.0175218 74.1626 0.000355621C75.926 -0.0168105 77.6391 0.587981 79.0009 1.70846C80.3627 2.82893 81.2861 4.39342 81.6089 6.12712C81.9317 7.86083 81.6333 9.65285 80.766 11.1884C79.8988 12.7239 78.5182 13.9047 76.8668 14.5234V22.9817C76.8668 23.3183 76.8003 23.6517 76.6712 23.9626C76.5421 24.2735 76.3529 24.556 76.1145 24.7936C75.876 25.0313 75.593 25.2196 75.2817 25.3476C74.9703 25.4757 74.6367 25.5409 74.3001 25.5398ZM102.4 12.4482C102.397 11.0988 102.029 9.77534 101.336 8.61733C100.644 7.45932 99.6512 6.50966 98.4638 5.86847C97.2765 5.22728 95.9382 4.91832 94.5899 4.97413C93.2416 5.02995 91.9334 5.44849 90.8031 6.18563C89.6729 6.92277 88.7624 7.95121 88.1677 9.16252C87.573 10.3738 87.3162 11.7232 87.4242 13.0682C87.5323 14.4133 88.0012 15.7043 88.7816 16.8052C89.562 17.9061 90.625 18.776 91.8584 19.3233V34.3233H66.7668C67.2432 36.0065 67.5969 37.7221 67.8251 39.4566H94.4167C95.0954 39.4522 95.7448 39.18 96.2239 38.6994C96.7029 38.2188 96.9729 37.5685 96.9751 36.8899V19.6732C98.5417 19.2222 99.9187 18.273 100.898 16.9693C101.876 15.6656 102.404 14.0785 102.4 12.4482ZM102.275 54.0566C102.294 52.2795 101.681 50.5536 100.546 49.1864C99.4103 47.8191 97.8264 46.8994 96.0762 46.5912C94.326 46.283 92.5232 46.6062 90.9892 47.5034C89.4551 48.4006 88.2895 49.8133 87.7 51.4898H67.4C67.0473 53.2325 66.5625 54.9457 65.95 56.6148H87.7C88.2893 58.2906 89.4542 59.7028 90.9874 60.6C92.5205 61.4972 94.3223 61.8211 96.072 61.514C97.8216 61.2069 99.4054 60.2887 100.541 58.9231C101.677 57.5574 102.292 55.8328 102.275 54.0566ZM41.3 87.6982H38.3333C36.9828 87.696 35.6882 87.1591 34.7325 86.205C33.7767 85.2508 33.2378 83.957 33.2334 82.6065V77.3898C30.3214 76.7366 27.516 75.6762 24.9 74.2398L21.4167 77.7232C20.4593 78.6764 19.1634 79.2115 17.8125 79.2115C16.4616 79.2115 15.1657 78.6764 14.2083 77.7232L10 73.4815C9.04891 72.5231 8.51519 71.2276 8.51519 69.8774C8.51519 68.5271 9.04891 67.2316 10 66.2732L13.175 63.0983C11.5129 60.4296 10.2575 57.5283 9.45001 54.4898H5.1C3.74952 54.4876 2.45488 53.9508 1.49916 52.9966C0.543447 52.0425 0.00443124 50.7487 6.84216e-06 49.3982V43.3983C-0.00109105 42.7274 0.129948 42.0629 0.385653 41.4427C0.641358 40.8226 1.01673 40.2588 1.49031 39.7837C1.96389 39.3085 2.5264 38.9313 3.14576 38.6736C3.76511 38.4159 4.42916 38.2827 5.1 38.2816H9.36667C10.1577 35.2128 11.405 32.2801 13.0667 29.5815L10 26.5149C9.05144 25.5568 8.51931 24.2631 8.51931 22.9149C8.51931 21.5667 9.05144 20.273 10 19.3149L14.2417 15.0732C15.199 14.1201 16.4949 13.585 17.8458 13.585C19.1967 13.585 20.4926 14.1201 21.45 15.0732L24.7833 18.4065C27.4286 16.9335 30.2714 15.8475 33.225 15.1816V10.1816C33.2316 8.83109 33.7727 7.53818 34.73 6.58558C35.6873 5.63298 36.9828 5.0982 38.3333 5.09821H44.325C45.629 5.10719 46.8802 5.61452 47.8222 6.51626C48.7642 7.41799 49.3257 8.64586 49.3917 9.94823V27.0149C47.1403 26.1955 44.7625 25.778 42.3667 25.7815C42.0084 25.7815 41.65 25.7815 41.3 25.7815C40.95 25.7815 40.5917 25.7815 40.2417 25.7815C37.5142 25.7264 34.8031 26.216 32.2671 27.2217C29.7312 28.2274 27.4214 29.7289 25.4729 31.6383C23.5245 33.5478 21.9766 35.8268 20.9199 38.3419C19.8632 40.857 19.3189 43.5577 19.3189 46.2857C19.3189 49.0138 19.8632 51.7145 20.9199 54.2296C21.9766 56.7447 23.5245 59.0236 25.4729 60.9331C27.4214 62.8425 29.7312 64.3441 32.2671 65.3497C34.8031 66.3554 37.5142 66.845 40.2417 66.7898C40.5917 66.7898 40.95 66.7898 41.3 66.7898C41.65 66.7898 42.0084 66.7898 42.3667 66.7898C44.7625 66.7934 47.1403 66.376 49.3917 65.5566V82.8482C49.3255 84.1549 48.7605 85.3864 47.8131 86.2888C46.8658 87.1911 45.6083 87.6956 44.3 87.6982H41.3Z" fill="white"/>
</svg>
