<?xml version="1.0" encoding="UTF-8" standalone="no"?>
<!-- Created with Inkscape (http://www.inkscape.org/) -->

<svg
   width="27.093365mm"
   height="24.561325mm"
   viewBox="0 0 27.093365 24.561325"
   version="1.1"
   id="svg1"
   inkscape:version="1.3.2 (091e20e, 2023-11-25, custom)"
   sodipodi:docname="graphic-06-bouton-2.svg"
   xmlns:inkscape="http://www.inkscape.org/namespaces/inkscape"
   xmlns:sodipodi="http://sodipodi.sourceforge.net/DTD/sodipodi-0.dtd"
   xmlns="http://www.w3.org/2000/svg"
   xmlns:svg="http://www.w3.org/2000/svg">
  <sodipodi:namedview
     id="namedview1"
     pagecolor="#ffffff"
     bordercolor="#666666"
     borderopacity="1.0"
     inkscape:showpageshadow="2"
     inkscape:pageopacity="0.0"
     inkscape:pagecheckerboard="0"
     inkscape:deskcolor="#d1d1d1"
     inkscape:document-units="mm"
     inkscape:zoom="6.253726"
     inkscape:cx="51.169495"
     inkscape:cy="46.452307"
     inkscape:window-width="1920"
     inkscape:window-height="1017"
     inkscape:window-x="-8"
     inkscape:window-y="-8"
     inkscape:window-maximized="1"
     inkscape:current-layer="layer1" />
  <defs
     id="defs1" />
  <g
     inkscape:label="Layer 1"
     inkscape:groupmode="layer"
     id="layer1"
     transform="translate(-95.77944,-123.29584)">
    <path
       class="cls-1"
       d="m 106.85007,131.78628 a 3.7857464,3.7857464 0 1 1 -3.79457,3.78576 3.7857464,3.7857464 0 0 1 3.79457,-3.78576 z m 9.06198,12.22155 v -1.92265 h -5.25859 a 9.7013889,9.7013889 0 0 0 1.24354,-1.36038 h 4.69194 a 0.68130207,0.68130207 0 0 1 0.6791,0.67688 v 2.60615 a 1.984375,1.984375 0 1 1 -1.35599,0 z M 115.438,130.05326 h -3.00963 a 9.873368,9.873368 0 0 0 -0.99439,-1.35819 h 3.32713 v -1.5434 a 1.984375,1.984375 0 1 1 1.35599,-0.0132 v 2.23793 a 0.67689234,0.67689234 0 0 1 -0.6791,0.67689 z m 7.4348,-3.46383 a 1.984375,1.984375 0 1 0 -2.78915,1.81901 v 3.96876 h -6.63884 a 9.5690972,9.5690972 0 0 1 0.28002,1.35818 h 7.03571 a 0.68130207,0.68130207 0 0 0 0.67689,-0.67911 v -4.55523 a 1.984375,1.984375 0 0 0 1.43537,-1.91161 z m -0.0331,11.00887 a 1.984375,1.984375 0 0 0 -3.8563,-0.67911 h -5.37104 a 9.2780555,9.2780555 0 0 1 -0.38365,1.35599 h 5.75469 a 1.984375,1.984375 0 0 0 3.8563,-0.67688 z m -16.13297,8.90103 h -0.78493 a 1.3515798,1.3515798 0 0 1 -1.34937,-1.34718 v -1.38025 a 8.4027255,8.4027255 0 0 1 -2.20486,-0.83344 l -0.92163,0.92165 a 1.3515798,1.3515798 0 0 1 -1.907211,0 l -1.113454,-1.12228 a 1.3537847,1.3537847 0 0 1 0,-1.9072 l 0.840053,-0.84005 a 8.3784722,8.3784722 0 0 1 -0.985573,-2.27764 h -1.150938 a 1.3515798,1.3515798 0 0 1 -1.349375,-1.34715 v -1.5875 a 1.3515798,1.3515798 0 0 1 1.349375,-1.35379 h 1.12889 a 8.3784722,8.3784722 0 0 1 0.978958,-2.30188 l -0.81139,-0.81139 a 1.3537847,1.3537847 0 0 1 0,-1.905 l 1.122276,-1.12227 a 1.3515798,1.3515798 0 0 1 1.907199,0 l 0.88195,0.88194 a 8.3784722,8.3784722 0 0 1 2.23352,-0.85327 v -1.32292 a 1.3515798,1.3515798 0 0 1 1.35158,-1.34497 h 1.5853 a 1.3515798,1.3515798 0 0 1 1.34055,1.28323 v 4.51556 a 5.4107291,5.4107291 0 0 0 -1.85869,-0.32632 c -0.0948,0 -0.18962,0 -0.28223,0 -0.0926,0 -0.18741,0 -0.28001,0 a 5.426163,5.426163 0 1 0 0,10.85011 c 0.0926,0 0.18741,0 0.28001,0 0.0926,0 0.18742,0 0.28223,0 a 5.4107291,5.4107291 0 0 0 1.85869,-0.32631 v 4.57509 a 1.3515798,1.3515798 0 0 1 -1.34717,1.28323 z"
       id="path1-8"
       style="fill:#000000;fill-rule:evenodd;stroke-width:0.220486" />
  </g>
</svg>
