<?xml version="1.0" encoding="UTF-8" standalone="no"?>
<!-- Created with Inkscape (http://www.inkscape.org/) -->

<svg
   width="37.482609mm"
   height="25.57641mm"
   viewBox="0 0 37.482609 25.57641"
   version="1.1"
   id="svg1"
   inkscape:version="1.3.2 (091e20e, 2023-11-25, custom)"
   sodipodi:docname="graphic-05.svg"
   xmlns:inkscape="http://www.inkscape.org/namespaces/inkscape"
   xmlns:sodipodi="http://sodipodi.sourceforge.net/DTD/sodipodi-0.dtd"
   xmlns="http://www.w3.org/2000/svg"
   xmlns:svg="http://www.w3.org/2000/svg">
  <sodipodi:namedview
     id="namedview1"
     pagecolor="#ffffff"
     bordercolor="#666666"
     borderopacity="1.0"
     inkscape:showpageshadow="2"
     inkscape:pageopacity="0.0"
     inkscape:pagecheckerboard="0"
     inkscape:deskcolor="#d1d1d1"
     inkscape:document-units="mm"
     inkscape:zoom="6.005526"
     inkscape:cx="70.768156"
     inkscape:cy="48.372116"
     inkscape:window-width="1920"
     inkscape:window-height="1017"
     inkscape:window-x="-8"
     inkscape:window-y="-8"
     inkscape:window-maximized="1"
     inkscape:current-layer="layer1" />
  <defs
     id="defs1" />
  <g
     inkscape:label="Layer 1"
     inkscape:groupmode="layer"
     id="layer1"
     transform="translate(-90.223211,-123.56041)">
    <path
       d="m 122.80313,138.68041 h -1.38203 v -1.38258 h 1.38203 z m -10.94641,-4.84976 c -0.0305,0 -0.058,0.003 -0.0885,0.003 H 90.717443 c -0.03051,0 -0.06102,0 -0.08847,-0.003 -0.100679,0.0185 -0.192204,0.0671 -0.259321,0.13734 -0.09153,0.0885 -0.146441,0.21365 -0.146441,0.34795 v 5.88135 c 0,0.1343 0.05491,0.25945 0.146441,0.34795 0.09153,0.0885 0.213556,0.14648 0.347795,0.14648 h 21.050793 c 0.13424,0 0.25932,-0.058 0.3478,-0.14648 0.0915,-0.0885 0.14644,-0.21365 0.14644,-0.34795 v -5.88135 c 0,-0.1343 -0.0549,-0.2564 -0.14644,-0.34795 -0.0702,-0.0702 -0.15865,-0.11903 -0.25932,-0.13734 z m -2.29119,1.69084 0.33255,0.33269 c 0.0885,0.0885 0.0885,0.23196 0,0.32046 l -0.26848,0.26861 c 0.0763,0.14039 0.13119,0.28993 0.1678,0.44558 h 0.3478 c 0.12508,0 0.22576,0.1007 0.22576,0.22585 v 0.47308 c 0,0.12512 -0.10068,0.22584 -0.22576,0.22584 h -0.38136 c -0.0458,0.15262 -0.11288,0.29912 -0.1983,0.43342 l 0.24712,0.24722 c 0.0885,0.0885 0.0885,0.23197 0,0.32047 l -0.33255,0.33269 c -0.0885,0.0885 -0.23186,0.0885 -0.32034,0 l -0.26847,-0.26861 c -0.14034,0.0763 -0.28983,0.13123 -0.44542,0.16788 v 0.3479 c 0,0.12515 -0.10068,0.22585 -0.22576,0.22585 h -0.47288 c -0.12509,0 -0.22577,-0.1007 -0.22577,-0.22585 v -0.3815 c -0.15254,-0.0458 -0.29898,-0.1129 -0.43322,-0.19836 l -0.24711,0.2472 c -0.0885,0.0885 -0.23187,0.0885 -0.32034,0 l -0.33254,-0.33266 c -0.0885,-0.0885 -0.0885,-0.23196 0,-0.32049 l 0.26847,-0.26858 c -0.0763,-0.14039 -0.13119,-0.28993 -0.1678,-0.44559 h -0.34779 c -0.12509,0 -0.22577,-0.10072 -0.22577,-0.22584 v -0.47311 c 0,-0.12509 0.10068,-0.22582 0.22577,-0.22582 h 0.38135 c 0.0458,-0.15261 0.11288,-0.29913 0.19831,-0.43344 l -0.24712,-0.2472 c -0.0885,-0.0885 -0.0885,-0.23196 0,-0.32043 l 0.33254,-0.33269 c 0.0885,-0.0885 0.23186,-0.0885 0.32034,0 l 0.26847,0.26855 c 0.13729,-0.0732 0.28678,-0.13121 0.44542,-0.16785 v -0.34793 c 0,-0.12512 0.10068,-0.22585 0.22577,-0.22585 h 0.47288 c 0.12508,0 0.22576,0.10073 0.22576,0.22585 v 0.38153 c 0.15254,0.0458 0.29898,0.1129 0.43322,0.19839 l 0.24712,-0.24726 c 0.0885,-0.0885 0.23186,-0.0885 0.32033,0 z m -1.52236,0.83934 c 0.51254,0 0.92745,0.41508 0.92745,0.92781 0,0.51277 -0.41491,0.92785 -0.92745,0.92785 -0.51255,0 -0.92746,-0.41508 -0.92746,-0.92785 0,-0.50969 0.41491,-0.92781 0.92746,-0.92781 z m 3.81355,5.91492 c -0.0305,0 -0.058,0.003 -0.0885,0.003 H 90.717443 c -0.03051,0 -0.06102,0 -0.08847,-0.003 -0.100679,0.0183 -0.192204,0.0702 -0.259321,0.13734 -0.09153,0.0916 -0.146441,0.21363 -0.146441,0.34793 v 5.88135 c 0,0.1343 0.05491,0.25942 0.146441,0.34795 0.09153,0.0885 0.213556,0.1465 0.347795,0.1465 h 21.050793 c 0.13424,0 0.25932,-0.058 0.3478,-0.1465 0.0915,-0.0885 0.14644,-0.21365 0.14644,-0.34795 v -5.88135 c 0,-0.1343 -0.0549,-0.25635 -0.14644,-0.34793 -0.0702,-0.0671 -0.15865,-0.11903 -0.25932,-0.13734 z m -19.537587,1.82512 h 1.235591 v 3.20165 h -1.235591 z m 3.419991,0 h 1.235593 v 3.20165 h -1.235593 z m 3.419996,0 h 1.23559 v 3.20165 h -1.23559 z m -6.839987,-8.44505 h 1.235591 v 3.20159 h -1.235591 z m 3.419991,0 h 1.235593 v 3.20159 h -1.235593 z m 3.419996,0 h 1.23559 v 3.20159 h -1.23559 z m 27.33248,-3.94635 c 0.0153,0 0.0336,0 0.0458,0.003 0.10373,-0.18005 0.19831,-0.37234 0.28678,-0.5738 0.003,-0.003 0.003,-0.006 0.006,-0.009 0.12814,-0.30519 0.22881,-0.61956 0.29288,-0.94919 0.0488,-0.25636 0.0824,-0.51274 0.0946,-0.78134 h -1.53762 c -0.0275,0.78134 -0.26237,1.55046 -0.6956,2.31043 z m -0.26847,0.4914 h -1.54678 c -0.46983,0.68058 -1.10441,1.35204 -1.89457,2.01739 0.12508,-0.0183 0.24712,-0.0366 0.36915,-0.061 0.33254,-0.0672 0.64983,-0.16481 0.96101,-0.29911 0.31119,-0.13428 0.60407,-0.293 0.8756,-0.47305 0.27152,-0.1801 0.51864,-0.38457 0.7505,-0.61656 0.17695,-0.17703 0.3417,-0.36624 0.49119,-0.56766 z m -4.76237,2.01739 c -0.79321,-0.66535 -1.42474,-1.33681 -1.89457,-2.01739 h -1.54677 c 0.14644,0.20142 0.31118,0.39063 0.49118,0.56766 0.23186,0.23199 0.47898,0.43646 0.75051,0.61656 0.26847,0.18005 0.56135,0.33877 0.87559,0.47305 0.003,0.003 0.006,0.003 0.009,0.006 0.30508,0.12819 0.61932,0.22889 0.94881,0.29297 0.12203,0.0243 0.24407,0.0428 0.36915,0.0611 z m -3.76473,-2.50879 h 1.55593 c -0.43322,-0.75997 -0.66814,-1.52909 -0.6956,-2.31044 h -1.53762 c 0.0122,0.26861 0.0427,0.52803 0.0946,0.78135 0.0671,0.33267 0.16474,0.65008 0.29898,0.96141 0.0854,0.19839 0.18,0.38761 0.28373,0.56768 z m -0.67424,-2.79877 h 1.54678 c 0.058,-0.76608 0.31118,-1.5352 0.76576,-2.31043 h -1.6383 c -0.10373,0.18007 -0.19831,0.3693 -0.28068,0.56769 -0.003,0.003 -0.003,0.006 -0.006,0.009 -0.12814,0.30521 -0.22882,0.61958 -0.29288,0.9492 -0.0519,0.25637 -0.0854,0.5158 -0.0946,0.78439 z m 0.99458,-2.79876 h 1.63524 c 0.46678,-0.67146 1.08,-1.34596 1.84576,-2.02352 -0.13728,0.0153 -0.27152,0.0366 -0.40271,0.0641 -0.33254,0.0671 -0.64983,0.16481 -0.96101,0.2991 -0.31119,0.13429 -0.60407,0.293 -0.8756,0.47308 -0.27152,0.18007 -0.51864,0.38456 -0.7505,0.61652 -0.17695,0.17702 -0.34169,0.36624 -0.49118,0.56768 z m 4.72575,-2.02352 c 0.76881,0.67756 1.38203,1.35206 1.84575,2.02352 h 1.63526 c -0.14645,-0.20144 -0.31119,-0.39066 -0.49119,-0.56768 -0.23186,-0.23196 -0.47898,-0.43645 -0.75051,-0.61653 -0.26847,-0.18007 -0.56135,-0.33878 -0.87559,-0.47306 -0.003,-0.003 -0.006,-0.003 -0.009,-0.006 -0.30508,-0.12819 -0.61932,-0.22891 -0.94881,-0.293 -0.13424,-0.0275 -0.26848,-0.0458 -0.40271,-0.0641 v -0.003 z m 3.79829,2.51185 h -1.6383 c 0.45152,0.77523 0.7078,1.54435 0.76576,2.31043 h 1.54678 c -0.0122,-0.2686 -0.0427,-0.52802 -0.0946,-0.78134 -0.0671,-0.33267 -0.16474,-0.65009 -0.29898,-0.9614 -0.0824,-0.19839 -0.17695,-0.38456 -0.28068,-0.56769 z m -5.54642,-2.92999 c 0.36304,-0.0733 0.7383,-0.10987 1.1227,-0.10987 0.38441,0 0.75966,0.0366 1.12271,0.10987 0.36,0.0702 0.70475,0.17702 1.04339,0.32352 0.003,0 0.009,0.003 0.0122,0.006 0.33559,0.14345 0.65287,0.31742 0.95185,0.5158 0.29899,0.19838 0.57356,0.42729 0.82678,0.67756 0.25628,0.25027 0.47899,0.52801 0.67729,0.82711 0.20135,0.29911 0.3722,0.61652 0.51559,0.95225 0.14644,0.34183 0.25627,0.69587 0.32949,1.05602 0.0732,0.36319 0.10983,0.7386 0.10983,1.12315 0,0.38458 -0.0366,0.76001 -0.10983,1.12319 -0.0702,0.36017 -0.17695,0.70505 -0.32338,1.04383 0,0.003 -0.003,0.009 -0.006,0.0121 -0.14338,0.33877 -0.31728,0.65314 -0.51559,0.95226 -0.1983,0.29909 -0.42712,0.57378 -0.67729,0.82712 -0.25016,0.25638 -0.52779,0.47916 -0.82678,0.67754 -0.29897,0.20143 -0.61626,0.37235 -0.95186,0.51581 -0.34169,0.1465 -0.69559,0.25635 -1.05558,0.32962 -0.36306,0.0732 -0.73831,0.10988 -1.12271,0.10988 -0.38441,0 -0.75966,-0.0366 -1.12271,-0.10988 -0.36,-0.0702 -0.70475,-0.17701 -1.04339,-0.32351 -0.003,0 -0.009,-0.003 -0.0122,-0.006 -0.3356,-0.14345 -0.65289,-0.31742 -0.95187,-0.5158 -0.29898,-0.19838 -0.57356,-0.42728 -0.82678,-0.67757 -0.25626,-0.25027 -0.47898,-0.528 -0.67728,-0.8271 -0.20136,-0.29911 -0.37221,-0.61655 -0.5156,-0.95226 -0.14643,-0.34182 -0.25626,-0.69585 -0.32948,-1.05602 -0.0732,-0.36318 -0.10983,-0.73862 -0.10983,-1.12319 0,-0.38455 0.0366,-0.75996 0.10983,-1.12316 0.0702,-0.36014 0.17694,-0.70502 0.32339,-1.0438 0,-0.003 0.003,-0.009 0.006,-0.0122 0.14339,-0.33878 0.31729,-0.65314 0.51559,-0.95224 0.1983,-0.29911 0.42712,-0.57379 0.67729,-0.82712 0.25017,-0.25637 0.5278,-0.47917 0.82677,-0.67756 0.29899,-0.20143 0.61628,-0.37235 0.95187,-0.5158 0.34169,-0.1465 0.69254,-0.25637 1.05559,-0.32962 z m 1.36982,0.73555 v 1.70611 h 1.62305 c -0.42407,-0.56463 -0.96406,-1.13232 -1.62305,-1.70611 z m 0,2.19444 v 2.31043 h 2.81593 c -0.0641,-0.75998 -0.34474,-1.52605 -0.84814,-2.31043 z m 0,2.8018 v 2.31044 h 2.05017 c 0.48508,-0.76608 0.7444,-1.5352 0.77491,-2.31044 z m 0,2.7988 v 1.72442 c 0.6956,-0.57076 1.2661,-1.14758 1.70847,-1.72442 z m -0.49118,1.72442 v -1.72442 h -1.70847 c 0.44237,0.57684 1.01288,1.15366 1.70847,1.72442 z m 0,-2.21582 v -2.31044 h -2.82508 c 0.0305,0.77524 0.29288,1.54436 0.77491,2.31044 z m 0,-2.79877 v -2.31043 h -1.96475 c -0.50338,0.78133 -0.78406,1.55045 -0.84813,2.31043 z m 0,-2.79876 v -1.70611 c -0.65899,0.57379 -1.19898,1.14148 -1.62305,1.70611 z m -23.949104,4.32788 h -1.382027 v -1.38263 h 1.382027 z m 0,-2.76827 h -1.382027 v -0.74166 -0.68976 h 0.692539 0.643729 v 0.69282 h 0.04881 v 0.7386 z m 1.33322,-0.0488 v -1.38258 h 1.382034 v 1.38258 z m 2.767114,0 v -1.38258 h 1.38203 v 1.38258 z m 2.76711,0 v -1.38258 h 1.38203 v 1.38258 z m 2.76711,0 v -1.38258 h 1.38203 v 1.38258 z m 2.76711,0 v -1.38258 h 1.38204 v 1.38258 z m 2.76712,0 v -1.38258 h 1.38203 v 1.38258 z m 2.65728,19.22504 v -1.38258 h 1.38203 v 1.38258 z m 2.76712,0 v -1.38258 h 1.38202 v 1.38258 z m 2.76711,0 v -1.38258 h 0.82677 v 0.13428 h 0.69254 v 0.55549 0.69281 h -0.69254 z m 1.51931,-2.63089 h -1.38203 v -1.38258 h 1.38203 z m 0,-2.76822 h -1.38203 v -1.38261 h 1.38203 z"
       id="path1"
       style="stroke-width:0.305147" />
  </g>
</svg>
