<?xml version="1.0" encoding="UTF-8" standalone="no"?>
<!-- Created with Inkscape (http://www.inkscape.org/) -->

<svg
   width="6.6145859mm"
   height="6.613975mm"
   viewBox="0 0 6.6145859 6.613975"
   version="1.1"
   id="svg1"
   inkscape:version="1.3.2 (091e20e, 2023-11-25, custom)"
   sodipodi:docname="graphic-04.svg"
   xmlns:inkscape="http://www.inkscape.org/namespaces/inkscape"
   xmlns:sodipodi="http://sodipodi.sourceforge.net/DTD/sodipodi-0.dtd"
   xmlns="http://www.w3.org/2000/svg"
   xmlns:svg="http://www.w3.org/2000/svg">
  <sodipodi:namedview
     id="namedview1"
     pagecolor="#ffffff"
     bordercolor="#666666"
     borderopacity="1.0"
     inkscape:showpageshadow="2"
     inkscape:pageopacity="0.0"
     inkscape:pagecheckerboard="0"
     inkscape:deskcolor="#d1d1d1"
     inkscape:document-units="mm"
     inkscape:zoom="23.223522"
     inkscape:cx="12.487339"
     inkscape:cy="12.508869"
     inkscape:window-width="1920"
     inkscape:window-height="1017"
     inkscape:window-x="-8"
     inkscape:window-y="-8"
     inkscape:window-maximized="1"
     inkscape:current-layer="layer1" />
  <defs
     id="defs1" />
  <g
     inkscape:label="Layer 1"
     inkscape:groupmode="layer"
     id="layer1"
     transform="translate(-105.56904,-133.34999)">
    <path
       d="m 112.10817,133.4142 a 0.24096766,0.24096666 0 0 0 -0.012,-0.0106 0.24096766,0.24096666 0 0 0 -0.0233,-0.0166 0.24096766,0.24096666 0 0 0 -0.006,-0.003 0.24096766,0.24096666 0 0 0 -0.018,-0.01 0.24096766,0.24096666 0 0 0 -0.0146,-0.007 0.24096766,0.24096666 0 0 0 -0.0226,-0.008 0.24096766,0.24096666 0 0 0 -0.008,-0.003 0.24096766,0.24096666 0 0 0 -0.018,-0.003 0.24096766,0.24096666 0 0 0 -0.005,-0.001 0.24096766,0.24096666 0 0 0 -0.016,-0.001 0.24096766,0.24096666 0 0 0 -0.024,-0.001 0.24096766,0.24096666 0 0 0 -0.016,0.001 0.24096766,0.24096666 0 0 0 -0.008,0 0.24096766,0.24096666 0 0 0 -0.008,0.001 0.24096766,0.24096666 0 0 0 -0.016,0.003 0.24096766,0.24096666 0 0 0 -0.0206,0.005 0.24096766,0.24096666 0 0 0 -0.005,0.002 0.24096766,0.24096666 0 0 0 -0.006,0.002 0.24096766,0.24096666 0 0 0 -0.014,0.006 0.24096766,0.24096666 0 0 0 -0.002,6.7e-4 l -6.13346,2.72597 a 0.24096766,0.24096666 0 0 0 0.003,0.44124 l 2.29672,0.9843 0.9843,2.29671 a 0.24096766,0.24096666 0 0 0 0.44124,0.003 l 2.71917,-6.11896 a 0.24096766,0.24096666 0 0 0 0.022,-0.0606 0.24096766,0.24096666 0 0 0 0.001,-0.008 0.24096766,0.24096666 0 0 0 0.002,-0.0153 0.24096766,0.24096666 0 0 0 0.002,-0.0206 0.24096766,0.24096666 0 0 0 0,-0.004 0.24096766,0.24096666 0 0 0 0,-0.008 0.24096766,0.24096666 0 0 0 -8e-4,-0.0153 0.24096766,0.24096666 0 0 0 -7.9e-4,-0.009 0.24096766,0.24096666 0 0 0 -0.003,-0.016 0.24096766,0.24096666 0 0 0 -0.002,-0.007 0.24096766,0.24096666 0 0 0 -0.003,-0.0153 0.24096766,0.24096666 0 0 0 -0.003,-0.008 0.24096766,0.24096666 0 0 0 -0.005,-0.0146 0.24096766,0.24096666 0 0 0 -0.01,-0.022 0.24096766,0.24096666 0 0 0 -0.008,-0.0146 0.24096766,0.24096666 0 0 0 -0.004,-0.007 0.24096766,0.24096666 0 0 0 -0.005,-0.006 0.24096766,0.24096666 0 0 0 -0.0153,-0.0193 0.24096766,0.24096666 0 0 0 -0.0166,-0.018 z m -1.2532,0.92305 -2.71466,2.71465 -1.72771,-0.74003 z m 0.34075,0.34075 -1.97458,4.4423 -0.74003,-1.7277 z"
       color="#000000"
       color-rendering="auto"
       dominant-baseline="auto"
       enable-background="accumulate"
       fill="#363636"
       image-rendering="auto"
       shape-rendering="auto"
       solid-color="#000000"
       style="font-variant-ligatures:normal;font-variant-position:normal;font-variant-caps:normal;font-variant-numeric:normal;font-variant-alternates:normal;font-feature-settings:normal;text-indent:0;text-decoration-line:none;text-decoration-style:solid;text-decoration-color:#000000;text-transform:none;text-orientation:mixed;white-space:normal;shape-padding:0;isolation:auto;mix-blend-mode:normal;fill:#f7941d;fill-opacity:1;stroke-width:1.38175"
       id="path2" />
  </g>
</svg>
