<svg width="643" height="666" viewBox="0 0 643 666" fill="none" xmlns="http://www.w3.org/2000/svg">
<path d="M164.891 537.955C255.875 588.251 403.393 588.251 494.377 537.955C585.362 487.658 585.374 406.087 494.377 355.79C403.38 305.494 255.875 305.481 164.891 355.79C73.9065 406.1 73.9065 487.645 164.891 537.955Z" fill="#EBEBEB"/>
<path d="M146.694 455.77C146.832 457.707 147.407 459.584 148.375 461.247C149.342 462.911 150.674 464.316 152.262 465.347L308.293 558.654C310.018 559.561 311.926 560.033 313.861 560.033C315.796 560.033 317.704 559.561 319.43 558.654L532.906 430.982C534.588 430.062 535.997 428.684 536.979 426.996C537.961 425.309 538.481 423.375 538.481 421.405C538.481 419.434 537.961 417.501 536.979 415.813C535.997 414.126 534.588 412.748 532.906 411.828L376.888 318.588C375.162 317.681 373.255 317.208 371.32 317.208C369.385 317.208 367.477 317.681 365.751 318.588L152.262 446.22C150.677 447.249 149.347 448.649 148.38 450.308C147.413 451.967 146.835 453.838 146.694 455.77Z" fill="#37474F"/>
<path d="M211.071 411.028L152.262 446.22C150.58 447.14 149.171 448.518 148.189 450.205C147.207 451.893 146.687 453.826 146.687 455.797C146.687 457.768 147.207 459.701 148.189 461.389C149.171 463.076 150.58 464.454 152.262 465.374L308.293 558.681C310.009 559.609 311.926 560.068 313.861 560.013V411.028H211.071Z" fill="#263238"/>
<path d="M141.46 446.406C139.91 445.312 138.63 443.856 137.723 442.156C136.816 440.455 136.308 438.558 136.239 436.616V243.756C136.342 241.754 136.901 239.806 137.868 238.07C138.836 236.335 140.185 234.86 141.807 233.766L355.283 106.094C356.895 105.047 358.751 104.475 360.653 104.438C362.555 104.402 364.43 104.903 366.078 105.888C367.725 106.872 369.082 108.304 370.004 110.027C370.925 111.751 371.376 113.702 371.307 115.671V308.544C371.201 310.546 370.642 312.493 369.675 314.228C368.707 315.964 367.359 317.439 365.738 318.534L152.262 446.22C150.602 447.127 148.759 447.616 146.883 447.649C145.006 447.681 143.148 447.256 141.46 446.406Z" fill="#455A64"/>
<path d="M162.37 252.72L137.872 238.068C136.896 239.797 136.361 241.754 136.316 243.756V436.616C136.385 438.558 136.894 440.455 137.8 442.156C138.707 443.856 139.987 445.312 141.537 446.406C143.226 447.249 145.082 447.669 146.956 447.632C148.831 447.595 150.67 447.102 152.327 446.193L176.684 431.635L162.37 252.72Z" fill="#263238"/>
<path d="M146.694 250.016V442.863C146.694 446.54 149.189 448.031 152.262 446.193L365.738 318.534C367.359 317.439 368.707 315.964 369.675 314.228C370.642 312.493 371.201 310.546 371.307 308.544V115.684C371.307 112.008 368.812 110.516 365.738 112.354L152.262 240.026C150.641 241.12 149.291 242.595 148.324 244.331C147.356 246.067 146.798 248.015 146.694 250.016Z" fill="#37474F"/>
<path d="M152.262 452.88L308.293 546.12C310.018 547.027 311.926 547.499 313.861 547.499C315.796 547.499 317.704 547.027 319.43 546.12L532.906 418.448C535.992 416.61 535.992 413.626 532.906 411.788L376.888 318.548C375.162 317.641 373.255 317.168 371.32 317.168C369.385 317.168 367.477 317.641 365.751 318.548L152.262 446.22C149.176 448.031 149.176 451.015 152.262 452.88Z" fill="#455A64"/>
<path d="M155.259 250.722L362.755 126.647C364.594 125.541 366.099 126.433 366.099 128.645V295.584C366.034 296.785 365.697 297.953 365.117 298.994C364.536 300.035 363.727 300.92 362.755 301.578L155.259 425.654C153.407 426.759 151.915 425.867 151.915 423.656V256.716C151.977 255.515 152.312 254.346 152.893 253.304C153.474 252.262 154.285 251.378 155.259 250.722Z" fill="white"/>
<path d="M170.369 447.858L368.529 329.31C369.392 328.857 370.346 328.621 371.313 328.621C372.281 328.621 373.235 328.857 374.097 329.31L384.244 335.371C384.58 335.489 384.872 335.713 385.078 336.012C385.285 336.31 385.396 336.668 385.396 337.036C385.396 337.403 385.285 337.761 385.078 338.06C384.872 338.359 384.58 338.583 384.244 338.701L186.046 457.236C185.183 457.688 184.229 457.924 183.262 457.924C182.294 457.924 181.34 457.688 180.477 457.236L170.369 451.188C170.033 451.07 169.742 450.846 169.535 450.547C169.328 450.249 169.217 449.891 169.217 449.523C169.217 449.156 169.328 448.798 169.535 448.499C169.742 448.2 170.033 447.976 170.369 447.858Z" fill="#263238"/>
<path d="M196.501 463.536L394.648 344.988C395.513 344.535 396.469 344.299 397.438 344.299C398.408 344.299 399.364 344.535 400.229 344.988L462.561 382.284C462.897 382.402 463.189 382.626 463.396 382.925C463.602 383.223 463.713 383.582 463.713 383.949C463.713 384.316 463.602 384.675 463.396 384.973C463.189 385.272 462.897 385.496 462.561 385.614L264.633 503.922C263.768 504.375 262.812 504.611 261.842 504.611C260.873 504.611 259.917 504.375 259.052 503.922L196.501 466.799C196.181 466.674 195.906 466.451 195.711 466.159C195.517 465.868 195.413 465.522 195.413 465.168C195.413 464.814 195.517 464.468 195.711 464.176C195.906 463.885 196.181 463.661 196.501 463.536Z" fill="#263238"/>
<path d="M374.123 398.268L380.335 394.552C380.592 394.392 380.579 394.139 380.335 393.966L373.159 389.677C373.006 389.595 372.836 389.552 372.664 389.552C372.491 389.552 372.322 389.595 372.168 389.677L365.97 393.393C365.7 393.553 365.713 393.806 365.97 393.979L373.146 398.268C373.297 398.348 373.465 398.389 373.635 398.389C373.804 398.389 373.972 398.348 374.123 398.268ZM361.88 383.616L355.682 387.332C355.412 387.479 355.425 387.745 355.682 387.918L362.858 392.207C363.011 392.289 363.181 392.332 363.353 392.332C363.525 392.332 363.695 392.289 363.848 392.207L370.059 388.491C370.317 388.331 370.304 388.065 370.059 387.905L362.871 383.616C362.718 383.534 362.548 383.492 362.376 383.492C362.203 383.492 362.034 383.534 361.88 383.616ZM341.845 395.604L331.338 401.878C331.081 402.038 331.094 402.304 331.338 402.477L338.514 406.766C338.667 406.848 338.837 406.891 339.009 406.891C339.181 406.891 339.351 406.848 339.504 406.766L349.998 400.492C350.268 400.333 350.242 400.066 349.998 399.906L342.822 395.604C342.671 395.522 342.503 395.48 342.333 395.48C342.163 395.48 341.995 395.522 341.845 395.604ZM352.814 389.037L346.616 392.753C346.346 392.913 346.358 393.18 346.616 393.34L353.792 397.629C353.945 397.71 354.114 397.753 354.287 397.753C354.459 397.753 354.629 397.71 354.782 397.629L360.993 393.912C361.25 393.752 361.237 393.499 360.993 393.326L353.804 388.944C353.651 388.862 353.482 388.82 353.309 388.82C353.137 388.82 352.967 388.862 352.814 388.944V389.037ZM328.47 403.596L322.272 407.299C322.002 407.459 322.027 407.725 322.272 407.898L329.448 412.187C329.599 412.266 329.767 412.307 329.936 412.307C330.106 412.307 330.273 412.266 330.425 412.187L336.636 408.471C336.893 408.311 336.881 408.045 336.636 407.885L329.46 403.596C329.307 403.514 329.138 403.472 328.965 403.472C328.793 403.472 328.623 403.514 328.47 403.596ZM319.468 409.017L313.27 412.733C313 412.88 313.025 413.146 313.27 413.32L320.446 417.609C320.599 417.69 320.768 417.733 320.941 417.733C321.113 417.733 321.283 417.69 321.436 417.609L327.647 413.892C327.904 413.732 327.892 413.466 327.647 413.306L320.394 408.924C320.241 408.842 320.071 408.8 319.899 408.8C319.727 408.8 319.557 408.842 319.404 408.924L319.468 409.017ZM347.696 426.466L353.894 422.75C354.164 422.59 354.139 422.337 353.894 422.164L346.719 417.875C346.568 417.793 346.4 417.751 346.23 417.751C346.06 417.751 345.892 417.793 345.741 417.875L339.53 421.591C339.273 421.751 339.285 422.004 339.53 422.177L346.706 426.466C346.855 426.527 347.016 426.553 347.176 426.541C347.336 426.53 347.492 426.481 347.632 426.4L347.696 426.466ZM338.617 431.888L344.828 428.171C345.085 428.025 345.072 427.758 344.828 427.585L337.652 423.296C337.499 423.214 337.329 423.172 337.157 423.172C336.985 423.172 336.815 423.214 336.662 423.296L330.464 427.012C330.193 427.172 330.219 427.439 330.464 427.599L337.639 431.888C337.787 431.948 337.945 431.974 338.103 431.962C338.261 431.951 338.415 431.902 338.552 431.821L338.617 431.888ZM329.55 437.309L335.762 433.606C336.019 433.446 336.006 433.18 335.762 433.006L328.586 428.717C328.432 428.639 328.263 428.598 328.091 428.598C327.919 428.598 327.75 428.639 327.596 428.717L321.397 432.434C321.127 432.594 321.153 432.86 321.397 433.02L328.56 437.309C328.71 437.37 328.87 437.395 329.03 437.384C329.191 437.372 329.346 437.324 329.486 437.242L329.55 437.309ZM320.548 442.73L326.76 439.027C327.017 438.867 327.004 438.601 326.76 438.428L319.584 434.139C319.431 434.057 319.261 434.014 319.089 434.014C318.917 434.014 318.747 434.057 318.594 434.139L312.395 437.842C312.125 438.002 312.138 438.268 312.395 438.441L319.571 442.73C319.851 442.825 320.156 442.801 320.42 442.663L320.548 442.73ZM365.186 403.782L371.397 400.066C371.654 399.92 371.641 399.653 371.397 399.48L364.221 395.191C364.067 395.112 363.898 395.071 363.726 395.071C363.554 395.071 363.385 395.112 363.231 395.191L357.032 398.907C356.762 399.067 356.775 399.334 357.032 399.493L364.208 403.782C364.347 403.831 364.493 403.851 364.639 403.839C364.785 403.828 364.927 403.786 365.057 403.716L365.186 403.782ZM356.827 421.098L370.664 412.813C370.921 412.667 370.908 412.4 370.664 412.227L353.239 401.811C353.085 401.729 352.916 401.687 352.743 401.687C352.571 401.687 352.401 401.729 352.248 401.811L345.098 406.1C344.828 406.247 344.854 406.513 345.098 406.686L354.332 412.201C354.615 412.374 354.627 412.64 354.332 412.8L348.506 416.077C348.249 416.223 348.262 416.49 348.506 416.663L355.708 420.912C355.856 421.004 356.023 421.058 356.195 421.07C356.367 421.082 356.54 421.05 356.698 420.979L356.827 421.098ZM310.466 414.438L304.268 418.155C303.998 418.315 304.01 418.568 304.268 418.741L311.444 423.03C311.597 423.112 311.766 423.154 311.939 423.154C312.111 423.154 312.281 423.112 312.434 423.03L318.645 419.314C318.902 419.154 318.89 418.901 318.645 418.727L311.469 414.438C311.305 414.32 311.112 414.251 310.913 414.239C310.713 414.227 310.514 414.273 310.338 414.372L310.466 414.438ZM301.464 419.86L295.06 423.576C294.803 423.736 294.816 424.002 295.06 424.162L302.236 428.451C302.389 428.533 302.559 428.576 302.731 428.576C302.903 428.576 303.073 428.533 303.226 428.451L309.437 424.735C309.695 424.588 309.682 424.322 309.437 424.149L302.21 419.82C302.066 419.742 301.906 419.7 301.744 419.695C301.581 419.691 301.42 419.724 301.271 419.793L301.464 419.86ZM255.914 480.599C256.067 480.681 256.237 480.723 256.409 480.723C256.581 480.723 256.751 480.681 256.904 480.599L263.116 476.883C263.373 476.736 263.36 476.47 263.116 476.296L255.914 472.034C255.761 471.952 255.591 471.91 255.419 471.91C255.247 471.91 255.077 471.952 254.924 472.034L248.725 475.75C248.455 475.91 248.468 476.177 248.725 476.336L255.914 480.599ZM228.689 463.176L222.478 466.893C222.221 467.052 222.234 467.305 222.478 467.479L229.654 471.768C229.807 471.849 229.977 471.892 230.149 471.892C230.321 471.892 230.491 471.849 230.644 471.768L236.856 468.051C237.113 467.892 237.1 467.639 236.856 467.465L229.68 463.176C229.532 463.101 229.369 463.062 229.204 463.062C229.039 463.062 228.876 463.101 228.728 463.176H228.689ZM243.286 475.897C243.439 475.979 243.608 476.021 243.781 476.021C243.953 476.021 244.123 475.979 244.276 475.897L250.474 472.181C250.744 472.034 250.719 471.768 250.474 471.595L243.311 467.305C243.158 467.224 242.988 467.181 242.816 467.181C242.644 467.181 242.474 467.224 242.321 467.305L236.11 471.022C235.853 471.182 235.865 471.448 236.11 471.608L243.286 475.897ZM271.925 483.889L278.136 480.173C278.393 480.013 278.381 479.76 278.136 479.587L270.96 475.297C270.807 475.216 270.637 475.173 270.465 475.173C270.293 475.173 270.123 475.216 269.97 475.297L263.772 479.014C263.502 479.16 263.527 479.427 263.772 479.6L270.935 483.889C271.091 483.98 271.268 484.028 271.447 484.031C271.627 484.033 271.804 483.989 271.963 483.902L271.925 483.889ZM261.868 489.217C262.021 489.299 262.191 489.341 262.363 489.341C262.536 489.341 262.705 489.299 262.858 489.217L269.07 485.501C269.327 485.354 269.314 485.088 269.07 484.915L261.894 480.625C261.741 480.544 261.571 480.501 261.399 480.501C261.227 480.501 261.057 480.544 260.904 480.625L254.705 484.342C254.435 484.502 254.448 484.768 254.705 484.928L261.868 489.217ZM237.756 457.675L231.557 461.391C231.287 461.538 231.3 461.804 231.557 461.977L238.733 466.267C238.886 466.348 239.056 466.391 239.228 466.391C239.401 466.391 239.57 466.348 239.723 466.267L245.935 462.55C246.192 462.39 246.179 462.124 245.935 461.964L238.759 457.675C238.603 457.61 238.435 457.583 238.267 457.597C238.1 457.611 237.938 457.665 237.794 457.755L237.756 457.675ZM283.1 430.569L276.889 434.272C276.632 434.432 276.644 434.698 276.889 434.858L284.065 439.16C284.219 439.239 284.388 439.28 284.56 439.28C284.731 439.28 284.901 439.239 285.055 439.16L291.253 435.457C291.523 435.298 291.511 435.031 291.253 434.858L284.077 430.569C283.925 430.508 283.762 430.483 283.599 430.497C283.437 430.511 283.279 430.563 283.139 430.649L283.1 430.569ZM246.912 452.334L240.714 456.037C240.444 456.197 240.456 456.463 240.714 456.636L247.889 460.925C248.043 461.004 248.213 461.045 248.385 461.045C248.556 461.045 248.726 461.004 248.88 460.925L255.091 457.209C255.348 457.049 255.335 456.783 255.091 456.623L247.915 452.32C247.759 452.242 247.586 452.202 247.412 452.204C247.238 452.207 247.067 452.251 246.912 452.334ZM292.256 425.214L285.994 428.904C285.736 429.064 285.749 429.33 285.994 429.49L293.17 433.779C293.323 433.861 293.492 433.904 293.665 433.904C293.837 433.904 294.007 433.861 294.16 433.779L300.358 430.076C300.628 429.916 300.615 429.65 300.358 429.477L293.208 425.241C293.054 425.156 292.884 425.109 292.71 425.105C292.535 425.1 292.363 425.138 292.205 425.214H292.256ZM274.124 436.07L267.912 439.773C267.655 439.933 267.668 440.199 267.912 440.372L275.088 444.661C275.242 444.74 275.412 444.781 275.583 444.781C275.755 444.781 275.925 444.74 276.079 444.661L282.277 440.959C282.547 440.799 282.521 440.532 282.277 440.359L275.114 436.07C274.953 435.983 274.775 435.937 274.593 435.937C274.412 435.937 274.233 435.983 274.072 436.07H274.124ZM265.045 441.491L258.846 445.194C258.576 445.354 258.602 445.621 258.846 445.794L266.022 450.083C266.176 450.161 266.345 450.202 266.517 450.202C266.689 450.202 266.858 450.161 267.012 450.083L273.211 446.38C273.468 446.22 273.455 445.954 273.211 445.78L266.035 441.491C265.874 441.404 265.696 441.358 265.514 441.358C265.333 441.358 265.154 441.404 264.993 441.491H265.045ZM255.914 446.913L249.716 450.616C249.446 450.775 249.471 451.042 249.716 451.215L256.879 455.504C257.032 455.586 257.201 455.628 257.374 455.628C257.546 455.628 257.716 455.586 257.869 455.504L264.08 451.801C264.337 451.641 264.325 451.375 264.08 451.202L256.904 446.913C256.75 446.834 256.581 446.793 256.409 446.793C256.237 446.793 256.068 446.834 255.914 446.913ZM302.274 453.573L308.473 449.87C308.743 449.71 308.73 449.443 308.473 449.27L301.284 444.888C301.13 444.809 300.961 444.768 300.789 444.768C300.617 444.768 300.448 444.809 300.294 444.888L294.083 448.591C293.825 448.751 293.838 449.017 294.083 449.19L301.258 453.479C301.414 453.572 301.59 453.623 301.77 453.628C301.949 453.632 302.127 453.591 302.287 453.506L302.274 453.573ZM381.942 371.628L375.731 375.344C375.474 375.504 375.486 375.757 375.731 375.93L382.907 380.219C383.06 380.301 383.229 380.344 383.402 380.344C383.574 380.344 383.744 380.301 383.897 380.219L390.095 376.503C390.365 376.343 390.353 376.09 390.095 375.917L382.919 371.628C382.768 371.548 382.601 371.507 382.431 371.507C382.261 371.507 382.094 371.548 381.942 371.628ZM370.96 378.195L364.761 381.911C364.491 382.058 364.517 382.324 364.761 382.497L371.924 386.786C372.078 386.865 372.248 386.906 372.419 386.906C372.591 386.906 372.76 386.865 372.914 386.786L379.126 383.07C379.383 382.91 379.37 382.644 379.126 382.484L371.95 378.195C371.8 378.1 371.631 378.045 371.456 378.033C371.281 378.022 371.107 378.054 370.947 378.128L370.96 378.195ZM391.008 366.207L384.81 369.923C384.54 370.07 384.553 370.336 384.81 370.509L391.986 374.798C392.139 374.88 392.309 374.923 392.481 374.923C392.653 374.923 392.823 374.88 392.976 374.798L399.187 371.082C399.445 370.922 399.432 370.656 399.187 370.496L392.011 366.207C391.854 366.101 391.673 366.039 391.486 366.027C391.299 366.015 391.112 366.054 390.944 366.14L391.008 366.207ZM344.069 416.343L350.281 412.627C350.538 412.467 350.525 412.201 350.281 412.041L343.105 407.752C342.952 407.67 342.782 407.627 342.61 407.627C342.438 407.627 342.268 407.67 342.115 407.752L335.916 411.468C335.646 411.615 335.659 411.881 335.916 412.054L343.092 416.343C343.247 416.41 343.414 416.439 343.582 416.428C343.749 416.416 343.912 416.365 344.057 416.277L344.069 416.343ZM401.065 360.812C400.912 360.73 400.742 360.688 400.57 360.688C400.398 360.688 400.228 360.73 400.075 360.812L393.876 364.528C393.606 364.675 393.619 364.941 393.876 365.114L401.052 369.403C401.206 369.482 401.375 369.523 401.547 369.523C401.719 369.523 401.888 369.482 402.042 369.403L408.254 365.687C408.511 365.527 408.498 365.261 408.254 365.101L401.065 360.812ZM311.354 448.085L317.565 444.382C317.822 444.222 317.809 443.956 317.565 443.782L310.35 439.56C310.197 439.478 310.028 439.436 309.855 439.436C309.683 439.436 309.513 439.478 309.36 439.56L303.162 443.263C302.892 443.423 302.905 443.689 303.162 443.862L310.338 448.151C310.5 448.224 310.677 448.256 310.853 448.245C311.03 448.233 311.201 448.178 311.354 448.085ZM422.554 381.591L428.765 377.875C429.023 377.729 429.01 377.462 428.765 377.289L421.551 372.96C421.398 372.878 421.228 372.836 421.056 372.836C420.884 372.836 420.714 372.878 420.561 372.96L414.362 376.676C414.092 376.836 414.105 377.102 414.362 377.262L421.538 381.551C421.691 381.644 421.864 381.696 422.041 381.703C422.218 381.71 422.394 381.672 422.554 381.591ZM403.264 380.885L409.475 377.169C409.733 377.009 409.72 376.756 409.475 376.583L402.299 372.294C402.146 372.212 401.977 372.17 401.804 372.17C401.632 372.17 401.462 372.212 401.309 372.294L395.111 376.01C394.841 376.17 394.854 376.423 395.111 376.596L402.287 380.885C402.43 380.971 402.59 381.022 402.755 381.033C402.92 381.045 403.085 381.017 403.238 380.952L403.264 380.885ZM411.327 366.873C411.174 366.791 411.004 366.748 410.832 366.748C410.66 366.748 410.49 366.791 410.337 366.873L404.138 370.589C403.868 370.736 403.881 371.002 404.138 371.175L411.314 375.464C411.467 375.546 411.637 375.589 411.809 375.589C411.982 375.589 412.151 375.546 412.305 375.464L418.516 371.748C418.773 371.588 418.76 371.322 418.516 371.162L411.327 366.873ZM413.243 365.727L430.656 376.143C430.809 376.225 430.979 376.268 431.151 376.268C431.323 376.268 431.493 376.225 431.646 376.143L437.857 372.427C438.115 372.267 438.102 372.014 437.857 371.841L420.432 361.425C420.279 361.343 420.109 361.3 419.937 361.3C419.765 361.3 419.595 361.343 419.442 361.425L413.243 365.141C412.909 365.288 412.935 365.554 413.218 365.727H413.243ZM392.204 377.715L385.993 381.431C385.736 381.591 385.749 381.858 385.993 382.018L393.169 386.307C393.322 386.388 393.492 386.431 393.664 386.431C393.836 386.431 394.006 386.388 394.159 386.307L400.358 382.59C400.628 382.444 400.615 382.177 400.358 382.004L393.182 377.715C393.036 377.636 392.874 377.592 392.709 377.587C392.544 377.583 392.38 377.617 392.23 377.689L392.204 377.715ZM323.956 418.528L317.719 422.244C317.462 422.404 317.475 422.67 317.719 422.83L324.895 427.119C325.048 427.201 325.218 427.244 325.39 427.244C325.562 427.244 325.732 427.201 325.885 427.119L332.084 423.403C332.354 423.256 332.341 422.99 332.084 422.817L324.908 418.528C324.759 418.444 324.592 418.398 324.422 418.393C324.253 418.389 324.084 418.426 323.931 418.501L323.956 418.528ZM412.523 387.013C412.676 387.094 412.846 387.137 413.018 387.137C413.191 387.137 413.36 387.094 413.513 387.013L419.725 383.296C419.982 383.15 419.969 382.883 419.725 382.71L412.549 378.421C412.395 378.342 412.225 378.301 412.054 378.301C411.882 378.301 411.713 378.342 411.559 378.421L405.36 382.137C405.09 382.297 405.103 382.564 405.36 382.723L412.523 387.013ZM333.023 413.106L326.824 416.823C326.554 416.983 326.567 417.236 326.824 417.409L334 421.698C334.153 421.78 334.323 421.822 334.495 421.822C334.667 421.822 334.837 421.78 334.99 421.698L341.202 417.982C341.459 417.822 341.446 417.569 341.202 417.395L334.026 413.106C333.87 413.014 333.694 412.963 333.515 412.958C333.335 412.953 333.157 412.995 332.997 413.08L333.023 413.106ZM265.045 475.204C265.198 475.286 265.368 475.329 265.54 475.329C265.712 475.329 265.882 475.286 266.035 475.204L272.246 471.488C272.503 471.328 272.491 471.075 272.246 470.902L265.07 466.613C264.917 466.531 264.748 466.488 264.575 466.488C264.403 466.488 264.233 466.531 264.08 466.613L257.882 470.329C257.612 470.489 257.637 470.742 257.882 470.915L265.045 475.204ZM251.413 461.884L245.202 465.601C244.945 465.76 244.957 466.013 245.202 466.187L252.378 470.476C252.531 470.557 252.7 470.6 252.873 470.6C253.045 470.6 253.215 470.557 253.368 470.476L259.566 466.759C259.836 466.6 259.824 466.346 259.566 466.173L252.39 461.884C252.236 461.8 252.064 461.756 251.889 461.756C251.714 461.756 251.542 461.8 251.387 461.884H251.413ZM275.114 469.783L281.313 466.067C281.57 465.907 281.557 465.64 281.313 465.481L274.137 461.192C273.984 461.11 273.814 461.067 273.642 461.067C273.469 461.067 273.3 461.11 273.146 461.192L266.884 464.868C266.626 465.014 266.639 465.281 266.884 465.454L274.06 469.743C274.214 469.838 274.389 469.891 274.569 469.898C274.749 469.905 274.927 469.866 275.088 469.783H275.114ZM284.18 464.362L290.379 460.645C290.649 460.486 290.623 460.219 290.379 460.059L283.216 455.77C283.063 455.689 282.893 455.646 282.721 455.646C282.549 455.646 282.379 455.689 282.226 455.77L276.014 459.473C275.757 459.633 275.77 459.9 276.014 460.073L283.19 464.362C283.347 464.445 283.522 464.488 283.698 464.488C283.875 464.488 284.049 464.445 284.206 464.362H284.18ZM293.182 458.927L299.381 455.224C299.651 455.064 299.638 454.798 299.381 454.638L292.205 450.336C292.051 450.257 291.882 450.216 291.71 450.216C291.538 450.216 291.369 450.257 291.215 450.336L285.003 454.039C284.746 454.199 284.759 454.465 285.003 454.638L292.179 458.927C292.337 459.016 292.514 459.062 292.694 459.062C292.873 459.062 293.05 459.016 293.208 458.927H293.182ZM260.415 456.463L254.204 460.179C253.947 460.326 253.959 460.592 254.204 460.765L261.38 465.054C261.533 465.136 261.702 465.179 261.875 465.179C262.047 465.179 262.217 465.136 262.37 465.054L268.581 461.338C268.838 461.178 268.826 460.912 268.581 460.752L261.405 456.463C261.257 456.388 261.094 456.349 260.929 456.349C260.765 456.349 260.602 456.388 260.454 456.463H260.415ZM269.481 451.042L263.283 454.745C263.013 454.905 263.026 455.171 263.283 455.344L270.459 459.633C270.613 459.712 270.782 459.753 270.954 459.753C271.126 459.753 271.295 459.712 271.449 459.633L277.776 455.944C278.033 455.784 278.02 455.517 277.776 455.357L270.6 451.068C270.438 450.966 270.253 450.91 270.064 450.905C269.874 450.9 269.686 450.948 269.52 451.042H269.481ZM305.759 429.357L299.638 433.06C299.381 433.22 299.394 433.486 299.638 433.659L306.814 437.948C306.968 438.027 307.137 438.068 307.309 438.068C307.481 438.068 307.65 438.027 307.804 437.948L314.003 434.245C314.273 434.085 314.247 433.819 314.003 433.646L306.84 429.357C306.68 429.266 306.501 429.218 306.319 429.218C306.137 429.218 305.958 429.266 305.798 429.357H305.759ZM296.68 434.778L290.482 438.481C290.225 438.641 290.237 438.907 290.482 439.08L297.658 443.369C297.812 443.448 297.981 443.489 298.153 443.489C298.324 443.489 298.494 443.448 298.648 443.369L304.846 439.666C305.116 439.507 305.091 439.24 304.846 439.067L297.671 434.778C297.522 434.706 297.359 434.668 297.195 434.668C297.03 434.668 296.868 434.706 296.719 434.778H296.68ZM314.826 423.922L308.64 427.639C308.383 427.798 308.396 428.065 308.64 428.225L315.816 432.527C315.97 432.606 316.139 432.647 316.311 432.647C316.483 432.647 316.652 432.606 316.806 432.527L323.005 428.811C323.275 428.664 323.262 428.398 323.005 428.225L315.829 423.936C315.679 423.859 315.515 423.818 315.348 423.816C315.181 423.813 315.016 423.85 314.864 423.922H314.826ZM278.548 445.621L272.349 449.323C272.079 449.483 272.092 449.75 272.349 449.923L279.525 454.212C279.679 454.291 279.848 454.332 280.02 454.332C280.192 454.332 280.361 454.291 280.515 454.212L286.727 450.496C286.984 450.336 286.971 450.069 286.727 449.91L279.551 445.607C279.399 445.535 279.234 445.498 279.067 445.501C278.9 445.503 278.736 445.544 278.586 445.621H278.548ZM287.614 440.199L281.415 443.902C281.145 444.062 281.171 444.328 281.415 444.502L288.591 448.791C288.742 448.872 288.91 448.915 289.08 448.915C289.25 448.915 289.418 448.872 289.569 448.791L295.78 445.088C296.037 444.928 296.024 444.662 295.78 444.488L288.604 440.199C288.455 440.127 288.293 440.089 288.128 440.089C287.964 440.089 287.801 440.127 287.653 440.199H287.614ZM281.004 478.481L287.202 474.765C287.46 474.605 287.447 474.338 287.202 474.179L280.027 469.89C279.874 469.808 279.704 469.765 279.531 469.765C279.359 469.765 279.189 469.808 279.036 469.89L272.838 473.606C272.568 473.752 272.594 474.019 272.838 474.192L280.014 478.481C280.172 478.57 280.349 478.616 280.528 478.616C280.708 478.616 280.885 478.57 281.043 478.481H281.004ZM227.828 472.86L220.652 468.571C220.499 468.489 220.329 468.446 220.157 468.446C219.985 468.446 219.815 468.489 219.662 468.571L213.476 472.314C213.219 472.474 213.232 472.727 213.476 472.9L220.652 477.189C220.805 477.271 220.975 477.313 221.147 477.313C221.319 477.313 221.489 477.271 221.642 477.189L227.841 473.473C228.124 473.353 228.111 473.086 227.828 472.86ZM241.408 476.989L234.232 472.7C234.08 472.622 233.913 472.581 233.743 472.581C233.574 472.581 233.407 472.622 233.255 472.7L223.764 478.441C223.507 478.601 223.52 478.867 223.764 479.027L230.94 483.316C231.093 483.398 231.263 483.441 231.435 483.441C231.607 483.441 231.777 483.398 231.93 483.316L241.472 477.615C241.768 477.482 241.691 477.216 241.408 477.042V476.989ZM216.82 464.562L209.618 460.326C209.465 460.244 209.295 460.201 209.123 460.201C208.951 460.201 208.781 460.244 208.628 460.326L201.015 464.868C200.758 465.028 200.77 465.294 201.015 465.467L208.191 469.756C208.344 469.838 208.513 469.881 208.686 469.881C208.858 469.881 209.028 469.838 209.181 469.756L216.807 465.201C217.115 465.054 217.103 464.788 216.82 464.615V464.562ZM222.671 461.058C222.824 461.14 222.994 461.183 223.166 461.183C223.338 461.183 223.508 461.14 223.661 461.058L229.86 457.342C230.13 457.196 230.117 456.929 229.86 456.756L222.684 452.467C222.531 452.385 222.361 452.343 222.189 452.343C222.016 452.343 221.847 452.385 221.694 452.467L215.482 456.183C215.225 456.343 215.238 456.61 215.482 456.769L222.671 461.058ZM254.049 481.691L246.912 477.455C246.758 477.377 246.589 477.336 246.417 477.336C246.245 477.336 246.076 477.377 245.922 477.455L233.988 484.595C233.731 484.755 233.743 485.021 233.988 485.181L241.164 489.483C241.318 489.562 241.487 489.603 241.659 489.603C241.831 489.603 242 489.562 242.154 489.483L254.088 482.344C254.345 482.184 254.332 481.918 254.049 481.744V481.691ZM260.004 490.389L252.828 486.18C252.675 486.098 252.505 486.056 252.333 486.056C252.16 486.056 251.991 486.098 251.837 486.18L244.199 490.749C243.941 490.909 243.954 491.175 244.199 491.348L251.375 495.637C251.529 495.716 251.698 495.757 251.87 495.757C252.041 495.757 252.211 495.716 252.365 495.637L260.004 491.068C260.299 490.882 260.286 490.616 260.004 490.442V490.389ZM290.096 420.739C290.249 420.821 290.419 420.863 290.591 420.863C290.763 420.863 290.933 420.821 291.086 420.739L297.285 417.036C297.555 416.876 297.529 416.61 297.285 416.436L290.109 412.147C289.955 412.069 289.785 412.028 289.614 412.028C289.442 412.028 289.273 412.069 289.119 412.147L282.92 415.917C282.663 416.077 282.676 416.343 282.92 416.503L290.096 420.739ZM271.951 431.595C272.105 431.673 272.274 431.714 272.446 431.714C272.617 431.714 272.787 431.673 272.941 431.595L279.152 427.892C279.409 427.732 279.396 427.465 279.152 427.292L271.976 423.003C271.822 422.924 271.653 422.884 271.481 422.884C271.309 422.884 271.14 422.924 270.986 423.003L264.787 426.706C264.517 426.866 264.543 427.132 264.787 427.306L271.951 431.595ZM231.737 455.69C231.89 455.772 232.06 455.815 232.232 455.815C232.405 455.815 232.574 455.772 232.728 455.69L238.926 451.974C239.196 451.814 239.183 451.561 238.926 451.388L231.75 447.099C231.597 447.017 231.427 446.975 231.255 446.975C231.083 446.975 230.913 447.017 230.76 447.099L224.549 450.815C224.291 450.975 224.304 451.228 224.549 451.401L231.737 455.69ZM281.03 426.24C281.181 426.319 281.349 426.359 281.518 426.359C281.688 426.359 281.855 426.319 282.007 426.24L288.218 422.537C288.476 422.377 288.463 422.111 288.218 421.938L281.043 417.649C280.889 417.567 280.72 417.524 280.547 417.524C280.375 417.524 280.205 417.567 280.052 417.649L273.854 421.351C273.584 421.511 273.609 421.778 273.854 421.951L281.03 426.24ZM262.884 437.082C263.037 437.164 263.207 437.207 263.379 437.207C263.552 437.207 263.721 437.164 263.874 437.082L270.086 433.379C270.343 433.22 270.33 432.953 270.086 432.78L262.91 428.491C262.756 428.412 262.587 428.371 262.415 428.371C262.243 428.371 262.074 428.412 261.92 428.491L255.721 432.194C255.451 432.354 255.464 432.62 255.721 432.793L262.884 437.082ZM264.98 491.148C264.826 491.07 264.657 491.029 264.485 491.029C264.314 491.029 264.144 491.07 263.99 491.148L254.448 496.836C254.191 496.996 254.204 497.262 254.448 497.435L261.624 501.724C261.777 501.806 261.947 501.849 262.119 501.849C262.291 501.849 262.461 501.806 262.614 501.724L272.156 496.023C272.426 495.864 272.401 495.597 272.156 495.424L264.98 491.148ZM249.87 444.888C250.024 444.967 250.193 445.008 250.365 445.008C250.537 445.008 250.706 444.967 250.86 444.888L257.071 441.172C257.329 441.012 257.316 440.745 257.071 440.586L249.896 436.297C249.743 436.215 249.573 436.172 249.401 436.172C249.228 436.172 249.059 436.215 248.905 436.297L242.707 440.013C242.437 440.159 242.45 440.426 242.707 440.599L249.87 444.888ZM240.804 450.216C240.957 450.298 241.126 450.34 241.299 450.34C241.471 450.34 241.641 450.298 241.794 450.216L248.005 446.5C248.262 446.34 248.25 446.073 248.005 445.914L240.829 441.625C240.676 441.543 240.506 441.5 240.334 441.5C240.162 441.5 239.992 441.543 239.839 441.625L233.641 445.341C233.371 445.487 233.383 445.754 233.641 445.927L240.804 450.216ZM432.983 390.676C432.83 390.594 432.661 390.551 432.488 390.551C432.316 390.551 432.146 390.594 431.993 390.676L416.664 399.786C416.407 399.946 416.42 400.213 416.664 400.386L423.84 404.675C423.994 404.754 424.163 404.795 424.335 404.795C424.507 404.795 424.676 404.754 424.83 404.675L440.185 395.604C440.455 395.444 440.442 395.178 440.185 395.005L432.983 390.676ZM412.935 402.664C412.782 402.582 412.612 402.539 412.44 402.539C412.267 402.539 412.098 402.582 411.944 402.664L405.746 406.366C405.476 406.526 405.489 406.793 405.746 406.966L412.922 411.255C413.076 411.334 413.245 411.375 413.417 411.375C413.589 411.375 413.758 411.334 413.912 411.255L420.123 407.552C420.381 407.392 420.368 407.126 420.123 406.953L412.935 402.664ZM290.109 473.06L296.307 469.343C296.577 469.184 296.552 468.917 296.307 468.757L289.144 464.455C288.99 464.376 288.821 464.335 288.649 464.335C288.478 464.335 288.308 464.376 288.154 464.455L281.943 468.158C281.686 468.318 281.698 468.584 281.943 468.757L289.119 473.046C289.272 473.127 289.44 473.17 289.612 473.173C289.784 473.175 289.954 473.136 290.109 473.06ZM394.802 413.506C394.648 413.427 394.479 413.386 394.307 413.386C394.135 413.386 393.966 413.427 393.812 413.506L387.6 417.209C387.343 417.369 387.356 417.635 387.6 417.808L394.776 422.097C394.929 422.179 395.099 422.222 395.271 422.222C395.444 422.222 395.613 422.179 395.767 422.097L401.965 418.394C402.235 418.235 402.222 417.968 401.965 417.795L394.802 413.506ZM442.05 385.254C441.896 385.176 441.726 385.135 441.555 385.135C441.383 385.135 441.213 385.176 441.059 385.254L434.861 388.944C434.591 389.104 434.604 389.37 434.861 389.53L442.037 393.832C442.191 393.911 442.36 393.952 442.532 393.952C442.704 393.952 442.873 393.911 443.027 393.832L449.238 390.129C449.496 389.97 449.483 389.703 449.238 389.53L442.05 385.254ZM458.292 384.122L440.867 373.706C440.714 373.624 440.544 373.581 440.371 373.581C440.199 373.581 440.029 373.624 439.876 373.706L433.678 377.422C433.408 377.582 433.421 377.848 433.678 378.008L451.103 388.424C451.256 388.506 451.426 388.549 451.598 388.549C451.771 388.549 451.94 388.506 452.093 388.424L458.305 384.708C458.588 384.562 458.575 384.295 458.292 384.122ZM360.916 433.779C360.763 433.697 360.593 433.655 360.421 433.655C360.249 433.655 360.079 433.697 359.926 433.779L352.287 438.348C352.03 438.508 352.043 438.774 352.287 438.934L359.463 443.223C359.616 443.305 359.786 443.347 359.958 443.347C360.13 443.347 360.3 443.305 360.453 443.223L368.092 438.654C368.349 438.494 368.336 438.228 368.092 438.068L360.916 433.779ZM383.82 420.073C383.667 419.991 383.497 419.948 383.325 419.948C383.152 419.948 382.983 419.991 382.829 420.073L373.287 425.774C373.03 425.934 373.043 426.2 373.287 426.36L380.463 430.662C380.617 430.741 380.787 430.782 380.958 430.782C381.13 430.782 381.299 430.741 381.453 430.662L390.996 424.961C391.253 424.801 391.24 424.535 390.996 424.362L383.82 420.073ZM339.916 446.326C339.762 446.248 339.592 446.207 339.42 446.207C339.249 446.207 339.079 446.248 338.925 446.326L287.858 476.856C287.601 477.016 287.614 477.282 287.858 477.455L295.034 481.744C295.188 481.823 295.358 481.864 295.529 481.864C295.701 481.864 295.87 481.823 296.024 481.744L347.091 451.202C347.349 451.042 347.336 450.775 347.091 450.602L339.916 446.326ZM285.981 478.588C285.828 478.506 285.658 478.463 285.486 478.463C285.313 478.463 285.144 478.506 284.991 478.588L277.365 483.156C277.095 483.316 277.107 483.583 277.365 483.742L284.54 488.031C284.694 488.113 284.863 488.156 285.036 488.156C285.208 488.156 285.378 488.113 285.531 488.031L293.208 483.516C293.465 483.356 293.452 483.09 293.208 482.93L285.981 478.588ZM350.409 440.053C350.255 439.974 350.086 439.933 349.914 439.933C349.743 439.933 349.573 439.974 349.419 440.053L341.793 444.622C341.523 444.781 341.536 445.048 341.793 445.221L348.969 449.51C349.123 449.589 349.292 449.63 349.464 449.63C349.636 449.63 349.805 449.589 349.959 449.51L357.598 444.941C357.868 444.795 357.842 444.528 357.598 444.355L350.409 440.053ZM275.487 484.848C275.333 484.769 275.164 484.728 274.992 484.728C274.82 484.728 274.651 484.769 274.497 484.848L266.858 489.417C266.601 489.577 266.614 489.843 266.858 490.016L274.034 494.305C274.188 494.384 274.357 494.425 274.529 494.425C274.701 494.425 274.87 494.384 275.024 494.305L282.65 489.75C282.92 489.59 282.907 489.323 282.65 489.15L275.487 484.848ZM371.41 427.479C371.256 427.4 371.086 427.359 370.915 427.359C370.743 427.359 370.574 427.4 370.42 427.479L362.794 432.034C362.523 432.194 362.536 432.46 362.794 432.634L369.969 436.923C370.123 437.001 370.293 437.042 370.465 437.042C370.636 437.042 370.806 437.001 370.96 436.923L378.598 432.354C378.869 432.194 378.843 431.928 378.598 431.754L371.41 427.479ZM403.868 408.071C403.715 407.99 403.546 407.947 403.373 407.947C403.201 407.947 403.031 407.99 402.878 408.071L396.68 411.774C396.41 411.934 396.422 412.201 396.68 412.374L403.856 416.663C404.01 416.742 404.179 416.783 404.351 416.783C404.522 416.783 404.692 416.742 404.846 416.663L411.057 412.96C411.314 412.8 411.301 412.534 411.057 412.36L403.868 408.071ZM423.737 393.126L429.936 389.423C430.206 389.264 430.193 388.997 429.936 388.824L422.76 384.535C422.606 384.456 422.436 384.415 422.265 384.415C422.093 384.415 421.923 384.456 421.769 384.535L415.558 388.251C415.301 388.411 415.314 388.678 415.558 388.837L422.734 393.14C422.89 393.221 423.061 393.263 423.236 393.263C423.41 393.263 423.581 393.221 423.737 393.14V393.126ZM383.228 392.94L389.439 389.224C389.697 389.064 389.684 388.797 389.439 388.638L382.264 384.349C382.11 384.267 381.941 384.224 381.768 384.224C381.596 384.224 381.426 384.267 381.273 384.349L375.075 388.065C374.805 388.225 374.831 388.478 375.075 388.651L382.238 392.94C382.391 393.022 382.561 393.064 382.733 393.064C382.905 393.064 383.075 393.022 383.228 392.94ZM362.652 429.743L380.785 418.901C381.042 418.741 381.029 418.474 380.785 418.301L373.609 414.012C373.455 413.933 373.285 413.893 373.114 413.893C372.942 413.893 372.773 413.933 372.619 414.012L354.486 424.868C354.229 425.015 354.242 425.281 354.486 425.454L361.662 429.743C361.82 429.815 361.993 429.846 362.165 429.835C362.337 429.823 362.504 429.769 362.652 429.676V429.743ZM413.681 398.614C413.835 398.693 414.004 398.734 414.176 398.734C414.347 398.734 414.517 398.693 414.671 398.614L420.869 394.911C421.139 394.751 421.126 394.485 420.869 394.312L413.693 390.023C413.54 389.941 413.371 389.898 413.198 389.898C413.026 389.898 412.856 389.941 412.703 390.023L406.492 393.726C406.235 393.886 406.247 394.152 406.492 394.325L413.681 398.614ZM404.421 392.5L410.62 388.797C410.89 388.638 410.877 388.371 410.62 388.198L403.444 383.909C403.29 383.83 403.121 383.789 402.949 383.789C402.777 383.789 402.608 383.83 402.454 383.909L396.242 387.625C395.985 387.785 395.998 388.052 396.242 388.211L403.418 392.514C403.58 392.582 403.755 392.611 403.929 392.597C404.103 392.583 404.272 392.527 404.421 392.434V392.5ZM353.586 435.124L359.784 431.408C360.054 431.248 360.029 430.995 359.784 430.822L352.608 426.533C352.455 426.451 352.286 426.409 352.113 426.409C351.941 426.409 351.771 426.451 351.618 426.533L345.381 430.236C345.111 430.396 345.137 430.649 345.381 430.822L352.557 435.111C352.724 435.21 352.913 435.261 353.105 435.258C353.297 435.256 353.485 435.2 353.65 435.098L353.586 435.124ZM393.632 410.562C393.786 410.641 393.955 410.682 394.127 410.682C394.299 410.682 394.468 410.641 394.622 410.562L400.833 406.859C401.091 406.7 401.078 406.433 400.833 406.26L393.658 401.971C393.504 401.892 393.334 401.851 393.162 401.851C392.991 401.851 392.821 401.892 392.667 401.971L386.469 405.687C386.199 405.847 386.212 406.113 386.469 406.273L393.632 410.562ZM308.241 462.204L314.44 458.501C314.71 458.341 314.697 458.075 314.44 457.902L307.264 453.613C307.11 453.534 306.941 453.493 306.769 453.493C306.597 453.493 306.428 453.534 306.274 453.613L300.062 457.315C299.805 457.475 299.818 457.742 300.062 457.915L307.238 462.204C307.394 462.285 307.566 462.327 307.74 462.327C307.914 462.327 308.086 462.285 308.241 462.204ZM317.308 456.783L323.519 453.08C323.776 452.92 323.763 452.654 323.519 452.48L316.356 448.191C316.203 448.11 316.033 448.067 315.861 448.067C315.689 448.067 315.519 448.11 315.366 448.191L309.154 451.894C308.897 452.054 308.91 452.32 309.154 452.494L316.33 456.783C316.483 456.859 316.65 456.899 316.819 456.899C316.988 456.899 317.155 456.859 317.308 456.783ZM299.175 467.625L305.374 463.922C305.644 463.762 305.631 463.496 305.374 463.323L298.211 459.034C298.057 458.955 297.887 458.914 297.716 458.914C297.544 458.914 297.374 458.955 297.22 459.034L291.009 462.737C290.752 462.897 290.765 463.163 291.009 463.336L298.185 467.625C298.338 467.707 298.508 467.75 298.68 467.75C298.852 467.75 299.022 467.707 299.175 467.625ZM335.44 445.94L341.652 442.237C341.909 442.077 341.896 441.811 341.652 441.638L334.476 437.349C334.322 437.27 334.152 437.229 333.981 437.229C333.809 437.229 333.64 437.27 333.486 437.349L327.287 441.065C327.017 441.225 327.03 441.491 327.287 441.651L334.463 445.94C334.614 446.02 334.782 446.061 334.952 446.061C335.121 446.061 335.289 446.02 335.44 445.94ZM326.438 451.361L332.65 447.658C332.907 447.499 332.894 447.232 332.65 447.059L325.358 442.77C325.205 442.688 325.035 442.646 324.863 442.646C324.691 442.646 324.521 442.688 324.368 442.77L318.169 446.473C317.899 446.633 317.912 446.899 318.169 447.059L325.345 451.361C325.504 451.447 325.681 451.491 325.86 451.491C326.039 451.491 326.215 451.447 326.374 451.361H326.438ZM344.571 440.519L350.782 436.803C351.039 436.656 351.027 436.39 350.782 436.217L343.606 431.928C343.453 431.846 343.284 431.803 343.111 431.803C342.939 431.803 342.769 431.846 342.616 431.928L336.315 435.564C336.045 435.724 336.07 435.99 336.315 436.15L343.478 440.439C343.629 440.54 343.803 440.601 343.982 440.614C344.162 440.628 344.342 440.596 344.507 440.519H344.571ZM386.057 360.293C386.21 360.374 386.38 360.417 386.552 360.417C386.725 360.417 386.894 360.374 387.048 360.293L393.259 356.576C393.516 356.43 393.503 356.163 393.259 355.99L391.356 354.845C391.202 354.766 391.032 354.725 390.86 354.725C390.689 354.725 390.519 354.766 390.365 354.845L384.154 358.548C383.897 358.708 383.91 358.974 384.154 359.147L386.057 360.293ZM341.446 390.129C341.599 390.211 341.769 390.254 341.941 390.254C342.113 390.254 342.283 390.211 342.436 390.129L348.635 386.426C348.905 386.267 348.892 386 348.635 385.827L341.459 381.538C341.305 381.459 341.135 381.418 340.964 381.418C340.792 381.418 340.623 381.459 340.469 381.538L334.257 385.241C334 385.401 334.013 385.667 334.257 385.84L341.446 390.129ZM359.579 379.287C359.733 379.366 359.902 379.407 360.074 379.407C360.245 379.407 360.415 379.366 360.569 379.287L366.78 375.584C367.037 375.424 367.024 375.158 366.78 374.985L359.604 370.696C359.451 370.614 359.281 370.571 359.109 370.571C358.937 370.571 358.767 370.614 358.614 370.696L352.364 374.398C352.094 374.558 352.107 374.825 352.364 374.998L359.579 379.287ZM330.373 396.749C330.527 396.828 330.697 396.869 330.869 396.869C331.04 396.869 331.21 396.828 331.364 396.749L337.562 393.033C337.832 392.873 337.819 392.607 337.562 392.447L330.386 388.145C330.232 388.066 330.063 388.025 329.891 388.025C329.72 388.025 329.55 388.066 329.396 388.145L323.185 391.848C322.928 392.008 322.94 392.274 323.185 392.447L330.373 396.749ZM350.512 384.761C350.666 384.84 350.836 384.881 351.007 384.881C351.179 384.881 351.348 384.84 351.502 384.761L357.714 381.058C357.971 380.899 357.958 380.632 357.714 380.459L350.538 376.17C350.384 376.091 350.215 376.05 350.043 376.05C349.871 376.05 349.702 376.091 349.548 376.17L343.349 379.873C343.079 380.033 343.092 380.299 343.349 380.472L350.512 384.761ZM312.177 407.592C312.33 407.674 312.499 407.716 312.672 407.716C312.844 407.716 313.014 407.674 313.167 407.592L319.365 403.876C319.635 403.716 319.61 403.449 319.365 403.29L312.202 399.001C312.049 398.919 311.879 398.876 311.707 398.876C311.535 398.876 311.365 398.919 311.212 399.001L305.001 402.717C304.744 402.863 304.756 403.13 305.001 403.303L312.177 407.592ZM321.243 402.171C321.397 402.249 321.566 402.29 321.738 402.29C321.91 402.29 322.079 402.249 322.233 402.171L328.432 398.454C328.702 398.295 328.689 398.028 328.432 397.868L321.269 393.579C321.116 393.498 320.946 393.455 320.773 393.455C320.601 393.455 320.431 393.498 320.278 393.579L314.067 397.296C313.81 397.442 313.823 397.709 314.067 397.882L321.243 402.171ZM367.86 371.148C368.014 371.227 368.184 371.268 368.355 371.268C368.527 371.268 368.697 371.227 368.851 371.148L375.062 367.445C375.319 367.286 375.306 367.019 375.062 366.846L373.146 365.701C372.992 365.622 372.822 365.581 372.651 365.581C372.479 365.581 372.31 365.622 372.156 365.701L365.957 369.403C365.687 369.563 365.713 369.83 365.957 370.003L367.86 371.148ZM395.072 354.871C395.223 354.953 395.391 354.996 395.561 354.996C395.731 354.996 395.899 354.953 396.049 354.871L402.261 351.155C402.518 350.995 402.505 350.742 402.261 350.569L400.358 349.424C400.204 349.342 400.035 349.299 399.862 349.299C399.69 349.299 399.52 349.342 399.367 349.424L393.156 353.126C392.899 353.286 392.912 353.553 393.156 353.726L395.072 354.871ZM410.131 363.889C410.285 363.968 410.455 364.009 410.626 364.009C410.798 364.009 410.967 363.968 411.121 363.889L417.333 360.173C417.59 360.013 417.577 359.747 417.333 359.587L410.157 355.284C410.003 355.206 409.834 355.165 409.662 355.165C409.49 355.165 409.321 355.206 409.167 355.284L402.968 358.987C402.698 359.147 402.724 359.414 402.968 359.587L410.131 363.889ZM432.803 387.718L439.015 384.002C439.272 383.856 439.259 383.589 439.015 383.416L431.839 379.127C431.685 379.048 431.515 379.007 431.344 379.007C431.172 379.007 431.003 379.048 430.849 379.127L424.65 382.843C424.38 383.003 424.393 383.27 424.65 383.429L431.826 387.718C431.977 387.798 432.145 387.84 432.315 387.84C432.485 387.84 432.652 387.798 432.803 387.718ZM376.927 365.727C377.081 365.806 377.25 365.847 377.422 365.847C377.593 365.847 377.763 365.806 377.917 365.727L384.128 362.024C384.385 361.864 384.373 361.598 384.128 361.425L382.212 360.279C382.058 360.201 381.889 360.16 381.717 360.16C381.545 360.16 381.376 360.201 381.222 360.279L375.023 363.982C374.766 364.142 374.779 364.409 375.023 364.582L376.927 365.727ZM303.11 413.013C303.263 413.095 303.433 413.138 303.605 413.138C303.778 413.138 303.947 413.095 304.101 413.013L310.299 409.297C310.556 409.137 310.543 408.884 310.299 408.711L303.123 404.422C302.97 404.34 302.8 404.297 302.628 404.297C302.456 404.297 302.286 404.34 302.133 404.422L295.934 408.138C295.677 408.298 295.69 408.551 295.934 408.724L303.11 413.013Z" fill="#455A64"/>
<path d="M339.98 471.395L407.881 430.782L449.676 455.77L381.762 496.383L339.98 471.395Z" fill="#263238"/>
<path d="M189.042 266.746L391.407 145.734C395.355 143.363 398.596 145.308 398.596 150.037V312.367C398.531 313.568 398.194 314.736 397.614 315.777C397.033 316.818 396.224 317.704 395.252 318.361L187.756 442.45C185.917 443.543 184.412 442.65 184.412 440.452V275.045C184.505 273.383 184.972 271.767 185.776 270.326C186.58 268.885 187.698 267.659 189.042 266.746Z" fill="#F5F5F5"/>
<path d="M398.66 153.926V150.037C398.66 145.308 395.419 143.377 391.471 145.734L189.042 266.747C187.698 267.659 186.58 268.885 185.776 270.326C184.972 271.767 184.505 273.383 184.412 275.045V282.011L398.66 153.926Z" fill="#F7941D"/>
<path d="M368.465 162.784C367.742 163.271 367.141 163.927 366.71 164.7C366.278 165.474 366.029 166.341 365.983 167.233C365.983 168.871 367.089 169.537 368.465 168.711C369.184 168.225 369.783 167.571 370.212 166.8C370.641 166.029 370.889 165.164 370.934 164.276C370.934 162.637 369.828 161.971 368.465 162.784Z" fill="white"/>
<path d="M378.29 156.91C377.57 157.398 376.971 158.055 376.542 158.828C376.113 159.601 375.866 160.468 375.821 161.358C375.821 162.997 376.927 163.649 378.29 162.837C379.012 162.35 379.613 161.693 380.045 160.92C380.476 160.147 380.725 159.28 380.772 158.388C380.772 156.75 379.666 156.084 378.29 156.91Z" fill="white"/>
<path d="M388.128 151.022C387.407 151.512 386.808 152.169 386.377 152.941C385.946 153.714 385.695 154.58 385.646 155.471C385.646 157.109 386.764 157.775 388.128 156.95C388.849 156.465 389.45 155.81 389.881 155.04C390.312 154.269 390.562 153.404 390.61 152.514C390.61 150.876 389.491 150.21 388.128 151.022Z" fill="white"/>
<path d="M234.383 361.488L226.509 356.779L207.225 391.374L215.099 396.082L234.383 361.488Z" fill="#37474F"/>
<path d="M234.399 361.477L230.467 359.126L211.184 393.721L215.115 396.072L234.399 361.477Z" fill="#263238"/>
<path d="M186.084 458.927C182.496 465.387 165.508 455.131 169.083 448.764L213.386 377.196C213.505 377.002 213.692 376.863 213.908 376.809C214.124 376.754 214.351 376.788 214.543 376.903L223.443 382.231C223.634 382.343 223.776 382.528 223.839 382.747C223.901 382.965 223.879 383.201 223.777 383.403L186.084 458.927Z" fill="#831F01"/>
<path opacity="0.1" d="M186.084 458.927L223.764 383.403C223.866 383.201 223.888 382.965 223.826 382.747C223.763 382.528 223.621 382.343 223.43 382.231L219.379 379.806L176.182 459.34C180.117 461.351 184.464 461.844 186.084 458.927Z" fill="black"/>
<path d="M316.356 290.443C316.356 289.896 316.356 289.364 316.279 288.831C316.202 288.298 316.279 287.779 316.163 287.259C316.047 286.74 316.163 286.566 316.06 286.22C315.97 285.314 315.842 284.422 315.7 283.556C315.636 283.17 315.572 282.77 315.494 282.384C315.417 281.998 315.353 281.651 315.276 281.292C315.057 280.306 314.826 279.347 314.556 278.428C314.414 277.988 314.286 277.549 314.144 277.096C314.117 277.031 314.095 276.965 314.08 276.896C313.925 276.47 313.784 276.057 313.63 275.657C313.475 275.258 313.27 274.725 313.064 274.325C312.858 273.926 312.781 273.673 312.614 273.353C312.521 273.113 312.409 272.882 312.279 272.66C312.151 272.381 312.009 272.101 311.855 271.835C311.701 271.568 311.791 271.701 311.752 271.648C311.714 271.595 311.482 271.169 311.341 270.929C311.199 270.689 311.148 270.622 311.058 270.476C310.399 269.401 309.659 268.381 308.846 267.426L308.434 266.946L308.087 266.573C307.946 266.413 307.791 266.267 307.637 266.107C307.233 265.667 306.804 265.254 306.351 264.868C306.132 264.668 305.901 264.482 305.669 264.309L304.962 263.776C304.595 263.497 304.212 263.239 303.818 263.003L303.509 262.804H303.445L285.222 251.908L285.119 251.841C281.623 249.822 277.676 248.788 273.674 248.844C267.707 248.844 260.968 250.869 253.831 255.131C229.32 269.783 209.438 305.454 209.438 334.785C209.438 349.437 214.376 359.693 222.362 364.515H222.439L240.675 375.397H240.752L240.971 375.517C241.313 375.727 241.665 375.918 242.025 376.09C242.462 376.317 242.913 376.516 243.311 376.703C243.71 376.889 244.121 377.036 244.533 377.169L245.189 377.369C245.418 377.46 245.655 377.531 245.896 377.582C246.133 377.657 246.373 377.719 246.616 377.768C246.789 377.821 246.965 377.861 247.143 377.888C247.452 377.955 247.786 378.022 248.108 378.061C248.18 378.074 248.254 378.074 248.327 378.061C248.712 378.133 249.098 378.186 249.484 378.221C256.094 378.941 263.784 377.009 272.015 372.094C296.539 357.442 316.42 321.758 316.42 292.441C316.356 291.828 316.356 291.135 316.356 290.443ZM286.611 269.703C287.574 273.348 288.046 277.113 288.013 280.892C288.013 306.76 269.739 339.5 248.147 352.474C244.99 354.417 241.582 355.884 238.026 356.829C237.068 353.179 236.597 349.41 236.624 345.627C236.624 319.76 254.898 287.019 276.49 274.046C279.635 272.109 283.029 270.647 286.572 269.703H286.611Z" fill="#831F01"/>
<path opacity="0.1" d="M239.929 375.025L222.221 364.448C214.235 359.613 209.297 349.33 209.297 334.732C209.297 321.651 213.257 307.319 219.803 294.159L238.039 305.028C231.48 318.188 227.532 332.52 227.532 345.601C227.532 359.933 232.239 370.069 239.929 375.025Z" fill="black"/>
<path opacity="0.4" d="M316.356 290.443C316.356 289.896 316.356 289.364 316.279 288.831C316.202 288.298 316.279 287.779 316.163 287.259C316.047 286.74 316.163 286.566 316.06 286.22C315.97 285.314 315.842 284.422 315.7 283.556C315.636 283.17 315.572 282.77 315.494 282.384C315.417 281.998 315.353 281.651 315.276 281.292C315.057 280.306 314.826 279.347 314.556 278.428C314.414 277.988 314.286 277.549 314.144 277.096C314.117 277.031 314.095 276.965 314.08 276.896C313.925 276.47 313.784 276.057 313.63 275.657C313.475 275.258 313.27 274.725 313.064 274.325C312.858 273.926 312.781 273.673 312.614 273.353C312.521 273.113 312.409 272.882 312.279 272.66C312.151 272.381 312.009 272.101 311.855 271.835C311.701 271.568 311.791 271.701 311.752 271.648C311.714 271.595 311.482 271.169 311.341 270.929C311.199 270.689 311.148 270.622 311.058 270.476C310.399 269.401 309.659 268.381 308.846 267.426L308.434 266.946L308.087 266.573C307.946 266.413 307.791 266.267 307.637 266.107C307.233 265.667 306.804 265.254 306.351 264.868C306.132 264.668 305.901 264.482 305.669 264.309L304.962 263.776C304.595 263.497 304.212 263.239 303.818 263.003C295.754 257.928 284.528 258.528 272.04 265.974C247.516 280.626 227.635 316.297 227.635 345.627C227.635 360.479 232.779 370.855 240.945 375.571C241.287 375.78 241.639 375.971 242 376.143C242.437 376.37 242.887 376.57 243.286 376.756C243.684 376.943 244.096 377.089 244.507 377.222L245.163 377.422C245.393 377.513 245.629 377.585 245.87 377.635C246.107 377.71 246.348 377.772 246.591 377.822C246.763 377.874 246.94 377.914 247.118 377.942C247.426 378.008 247.761 378.075 248.082 378.115C248.155 378.127 248.229 378.127 248.301 378.115C248.687 378.186 249.073 378.239 249.458 378.275C256.068 378.994 263.759 377.063 271.989 372.147C296.513 357.495 316.395 321.811 316.395 292.494C316.356 291.828 316.356 291.135 316.356 290.443ZM267.488 364.115C261.984 367.406 256.686 369.137 252.159 369.137C243.658 369.137 239.749 363.13 238.013 356.829C237.055 353.179 236.584 349.41 236.611 345.627C236.611 319.76 254.885 287.019 276.477 274.046C279.634 272.106 283.042 270.644 286.598 269.703C288.281 269.271 290.008 269.043 291.742 269.024C305.798 269.024 307.303 285.461 307.303 292.534C307.354 318.348 289.08 351.182 267.488 364.115Z" fill="white"/>
<path opacity="0.1" d="M307.354 292.534C307.354 318.401 289.093 351.142 267.488 364.115C261.984 367.405 256.686 369.137 252.159 369.137C243.658 369.137 239.749 363.13 238.013 356.829C241.569 355.884 244.977 354.417 248.134 352.474C269.764 339.54 288 306.759 288 280.892C288.033 277.113 287.561 273.348 286.598 269.703C288.281 269.271 290.008 269.043 291.742 269.024C305.837 269.064 307.354 285.461 307.354 292.534Z" fill="black"/>
<path opacity="0.7" d="M299.638 288.018C299.638 313.886 281.377 346.626 259.772 359.6C254.268 362.89 248.97 364.622 244.443 364.622C243.542 364.624 242.643 364.548 241.755 364.395C240.017 362.171 238.751 359.594 238.039 356.829C237.081 353.179 236.609 349.41 236.637 345.627C236.637 319.76 254.911 287.019 276.503 274.046C279.659 272.106 283.068 270.644 286.624 269.703C288.307 269.271 290.033 269.043 291.768 269.024C292.672 269.022 293.576 269.097 294.468 269.25C298.918 274.672 299.638 283.37 299.638 288.018Z" fill="white"/>
<path d="M330.721 261.072V290.562C330.721 292.774 332.225 293.666 334.064 292.56L520.663 180.979C521.635 180.321 522.444 179.436 523.024 178.395C523.605 177.353 523.942 176.185 524.006 174.985V145.454C524.006 143.243 522.502 142.351 520.663 143.456L334.064 255.038C333.088 255.701 332.276 256.592 331.695 257.641C331.114 258.689 330.78 259.865 330.721 261.072Z" fill="#E6E6E6"/>
<path d="M334.064 255.038L367.294 235.178V272.66L334.064 292.52C332.225 293.626 330.721 292.734 330.721 290.522V261.072C330.78 259.865 331.114 258.689 331.695 257.641C332.276 256.592 333.088 255.701 334.064 255.038Z" fill="#F7941D"/>
<path d="M356.299 251.535C354.203 250.283 351.554 250.483 348.84 252.108C346.262 253.819 344.116 256.145 342.584 258.891C341.051 261.637 340.176 264.723 340.031 267.892C339.941 269.945 340.566 271.964 341.793 273.579L338.218 279.92C337.985 280.373 337.929 280.902 338.06 281.398C338.192 281.893 338.501 282.317 338.925 282.584C339.22 282.755 339.552 282.847 339.89 282.85C340.229 282.85 340.561 282.758 340.855 282.583C341.148 282.407 341.392 282.155 341.562 281.851L345.098 275.511C345.48 275.585 345.867 275.625 346.255 275.631C347.834 275.601 349.378 275.142 350.731 274.299C353.305 272.584 355.446 270.256 356.976 267.511C358.506 264.765 359.381 261.681 359.527 258.515C359.566 255.278 358.408 252.8 356.299 251.535ZM348.84 270.849C348.389 271.352 347.785 271.682 347.129 271.784C346.473 271.887 345.803 271.755 345.228 271.412C344.653 271.069 344.208 270.534 343.965 269.894C343.722 269.255 343.695 268.549 343.889 267.892C344.039 265.427 344.738 263.032 345.932 260.894C347.126 258.757 348.782 256.934 350.769 255.571C351.541 255.062 352.428 254.773 353.341 254.732C353.718 254.717 354.092 254.809 354.422 254.998C354.906 255.427 355.277 255.975 355.502 256.592C355.727 257.209 355.798 257.875 355.708 258.528C355.559 260.991 354.862 263.386 353.67 265.523C352.479 267.661 350.826 269.484 348.84 270.849Z" fill="white"/>
</svg>
