<?xml version="1.0" encoding="UTF-8" standalone="no"?>
<!-- Created with Inkscape (http://www.inkscape.org/) -->

<svg
   width="88.115906mm"
   height="58.386452mm"
   viewBox="0 0 88.115907 58.386452"
   version="1.1"
   id="svg1"
   inkscape:version="1.3.2 (091e20e, 2023-11-25, custom)"
   sodipodi:docname="graphic-09-logo.svg"
   xmlns:inkscape="http://www.inkscape.org/namespaces/inkscape"
   xmlns:sodipodi="http://sodipodi.sourceforge.net/DTD/sodipodi-0.dtd"
   xmlns="http://www.w3.org/2000/svg"
   xmlns:svg="http://www.w3.org/2000/svg">
  <sodipodi:namedview
     id="namedview1"
     pagecolor="#ffffff"
     bordercolor="#666666"
     borderopacity="1.0"
     inkscape:showpageshadow="2"
     inkscape:pageopacity="0.0"
     inkscape:pagecheckerboard="0"
     inkscape:deskcolor="#d1d1d1"
     inkscape:document-units="mm"
     inkscape:zoom="2.6307438"
     inkscape:cx="166.49284"
     inkscape:cy="110.42504"
     inkscape:window-width="1920"
     inkscape:window-height="1017"
     inkscape:window-x="-8"
     inkscape:window-y="-8"
     inkscape:window-maximized="1"
     inkscape:current-layer="layer1" />
  <defs
     id="defs1" />
  <g
     inkscape:label="Layer 1"
     inkscape:groupmode="layer"
     id="layer1"
     transform="translate(-66.146097,-104.51043)">
    <g
       inkscape:label="Layer 1"
       id="layer1-5"
       transform="matrix(2.927632,0,0,2.927632,37.778953,103.25246)">
      <path
         id="rect885"
         style="fill:#f7941d;fill-opacity:1;stroke:none;stroke-width:0.2;stroke-miterlimit:4;stroke-dasharray:none;stroke-dashoffset:0"
         d="m 15.08125,0.52916666 -5.2916663,5.29166664 -5e-7,3.1749999 H 15.08125 V 14.2875 h 3.175 V 8.9958332 h 1.852083 V 5.8208333 H 18.25625 V 0.52916666 Z m 0,4.49843334 v 0.7932333 h -0.793233 z"
         sodipodi:nodetypes="cccccccccccccccc" />
      <path
         id="path894"
         style="fill:#802000;fill-opacity:1;stroke:none;stroke-width:0.2;stroke-miterlimit:4;stroke-dasharray:none;stroke-dashoffset:0"
         d="M 18.785668,0.52941886 V 5.2919189 h 1.852084 v 4.2333332 h -1.852084 v 1.0583329 h 3.175 V 8.9960854 h 2.645834 c 0.584501,0 1.058333,0.4738325 1.058333,1.0583336 0,0.584501 -0.473832,1.058333 -1.058333,1.058333 h -2.645834 -3.175 v 3.175 h 5.820834 c 2.338003,0 4.233333,-1.89533 4.233333,-4.233333 -9.2e-5,-1.2748601 -0.574706,-2.481797 -1.564246,-3.2855877 0.331957,-0.6165591 0.505786,-1.3058365 0.505913,-2.0060791 0,-2.3380032 -1.89533,-4.23333334 -4.233333,-4.23333334 z m 3.175,3.17500004 h 1.587501 c 0.5845,0 1.058333,0.4738325 1.058333,1.0583333 6.6e-5,0.5783014 -0.464079,1.0495799 -1.042314,1.0583334 h -1.60352 z" />
      <path
         id="path896"
         style="fill:#802000;fill-opacity:1;stroke:none;stroke-width:0.200025;stroke-miterlimit:4;stroke-dasharray:none;stroke-dashoffset:0"
         d="m 33.602335,0.52941886 c -2.338003,0 -4.233333,1.89533014 -4.233333,4.23333334 v 5.2916668 c 0,2.338003 1.89533,4.233333 4.233333,4.233333 h 1.852084 c 0.859596,-3.3e-5 1.698817,-0.261749 2.406054,-0.750342 l 0.504362,0.485759 v 0.79375 H 9.7898352 v 1.322917 H 39.687752 v -2.645834 l -0.869715,-0.869714 c 0.563983,-0.738013 0.869588,-1.641031 0.869715,-2.569869 V 4.7627522 c 0,-2.3380032 -1.89533,-4.23333334 -4.233333,-4.23333334 z m -0.01602,3.17500004 c 0.0053,-4.05e-5 0.01068,-4.05e-5 0.01602,0 h 1.852084 c 0.584501,0 1.058333,0.4738325 1.058333,1.0583333 v 5.2916668 c 0,0.08143 -0.01154,0.159489 -0.02894,0.235644 l -0.897104,-0.8971026 -0.995805,0.9952886 0.752409,0.724503 h -1.740979 c -0.584501,0 -1.058333,-0.473832 -1.058333,-1.058333 V 4.7627522 c -6.7e-5,-0.5783013 0.464078,-1.0495798 1.042313,-1.0583333 z" />
      <g
         aria-label="For Business Quality"
         id="text9384"
         style="font-size:3.47368px;line-height:1.25;font-family:'Kabel Dm BT';-inkscape-font-specification:'Kabel Dm BT, Normal';letter-spacing:0px;word-spacing:0px;stroke-width:0.264583">
        <path
           d="m 9.6895822,19.767402 v -2.427166 h 1.2330888 l 0.100072,0.444387 h -0.858244 v 0.559724 h 0.639442 v 0.427425 h -0.639442 v 0.9651 z"
           id="path175" />
        <path
           d="m 11.50614,18.85149 q 0,0.222194 0.144172,0.371453 0.145867,0.14926 0.35958,0.14926 0.208624,0 0.357884,-0.152652 0.14926,-0.154348 0.14926,-0.368061 0,-0.225585 -0.144172,-0.371453 -0.144171,-0.145867 -0.362972,-0.145867 -0.213713,0 -0.35958,0.147563 -0.144172,0.145868 -0.144172,0.369757 z m -0.451171,0 q 0,-0.191663 0.07124,-0.35958 0.07124,-0.167917 0.21032,-0.300215 0.133995,-0.128906 0.307,-0.196752 0.173006,-0.06784 0.366365,-0.06784 0.193359,0 0.368061,0.06954 0.176398,0.06785 0.313784,0.198448 0.135691,0.130602 0.206929,0.298519 0.07124,0.166221 0.07124,0.357884 0,0.191663 -0.07124,0.361277 -0.07124,0.167917 -0.206929,0.298519 -0.132298,0.12721 -0.310392,0.196751 -0.176398,0.06785 -0.371453,0.06785 -0.196751,0 -0.368061,-0.06615 -0.169613,-0.06785 -0.305304,-0.198448 -0.137387,-0.133994 -0.21032,-0.303608 -0.07124,-0.169613 -0.07124,-0.356188 z"
           id="path177" />
        <path
           d="m 13.226019,19.76401 v -1.794509 l 0.407072,-0.02883 v 0.305304 q 0.09159,-0.171309 0.245939,-0.251028 0.156044,-0.08141 0.393503,-0.08141 h 0.05258 l -0.156044,0.427425 q -0.257812,0 -0.378238,0.144172 -0.118729,0.144171 -0.118729,0.452867 v 0.798879 z"
           id="path179" />
        <path
           d="m 15.851633,18.305336 h 0.208624 q 0.169613,0 0.25442,-0.06785 0.0865,-0.06785 0.0865,-0.203536 0,-0.132298 -0.08141,-0.200143 -0.07972,-0.06954 -0.235762,-0.06954 h -0.23237 z m 0,0.993933 h 0.239154 q 0.213713,0 0.310393,-0.06784 0.09668,-0.06785 0.09668,-0.217105 0,-0.166221 -0.115337,-0.249331 -0.113641,-0.08481 -0.342619,-0.08481 h -0.18827 z m -0.471525,0.437603 v -2.396636 h 0.690326 q 0.393502,0 0.59195,0.156044 0.200144,0.154348 0.200144,0.457956 0,0.174702 -0.08311,0.301912 -0.08311,0.12721 -0.245939,0.205232 0.217105,0.06615 0.335834,0.230674 0.118729,0.162829 0.118729,0.398591 0,0.313785 -0.215408,0.480006 -0.215409,0.166221 -0.622481,0.166221 z"
           id="path181" />
        <path
           d="m 18.702832,17.940667 v 1.796205 l -0.408768,0.0424 v -0.274773 q -0.101768,0.137386 -0.228978,0.206928 -0.125514,0.06784 -0.278166,0.06784 -0.262901,0 -0.40368,-0.167917 -0.139082,-0.169613 -0.139082,-0.485094 v -1.156763 l 0.444386,-0.02883 v 1.053299 q 0,0.220497 0.05597,0.307 0.05597,0.08481 0.18827,0.08481 0.159437,0 0.242547,-0.108552 0.08311,-0.110249 0.08311,-0.322266 v -0.985453 z"
           id="path183" />
        <path
           d="m 18.930114,19.504502 0.271381,-0.278166 q 0.0882,0.09329 0.183183,0.139083 0.09498,0.0441 0.205232,0.0441 0.118729,0 0.184878,-0.04749 0.06785,-0.04749 0.06785,-0.132298 0,-0.110249 -0.235763,-0.17979 -0.0865,-0.02544 -0.135691,-0.0424 -0.257812,-0.0865 -0.371453,-0.212017 -0.11364,-0.12721 -0.11364,-0.322265 0,-0.244243 0.181486,-0.398591 0.181486,-0.154349 0.471525,-0.154349 0.17979,0 0.33753,0.07293 0.159437,0.07124 0.303608,0.218801 l -0.29852,0.239155 q -0.07972,-0.0882 -0.159436,-0.130602 -0.07972,-0.0424 -0.166221,-0.0424 -0.09498,0 -0.150956,0.0441 -0.05428,0.0441 -0.05428,0.118729 0,0.07463 0.06784,0.123818 0.06785,0.04749 0.300216,0.115337 0.271381,0.08311 0.38163,0.20184 0.111944,0.118729 0.111944,0.320569 0,0.2629 -0.191663,0.425729 -0.189967,0.161133 -0.507143,0.161133 -0.196752,0 -0.369757,-0.07124 -0.173006,-0.07293 -0.313785,-0.213712 z"
           id="path185" />
        <path
           d="m 20.829783,17.784623 -0.295128,-0.301912 0.295128,-0.295127 0.301911,0.295127 z m -0.228978,1.979387 v -1.794509 l 0.447779,-0.02883 v 1.796205 z"
           id="path187" />
        <path
           d="m 21.413252,19.76401 v -1.794509 l 0.407072,-0.02883 v 0.257812 q 0.101768,-0.139083 0.227282,-0.206928 0.125514,-0.06785 0.279862,-0.06785 0.261204,0 0.400287,0.169613 0.140779,0.169613 0.140779,0.48679 v 1.156763 l -0.444387,0.02714 v -1.051603 q 0,-0.220497 -0.05597,-0.307 -0.05428,-0.0865 -0.186575,-0.0865 -0.161132,0 -0.244243,0.108552 -0.08311,0.108553 -0.08311,0.318873 v 0.990542 z"
           id="path189" />
        <path
           d="m 24.815695,19.538424 q -0.181486,0.118729 -0.368061,0.178094 -0.186575,0.05936 -0.386718,0.05936 -0.196752,0 -0.368061,-0.06615 -0.169613,-0.06785 -0.305304,-0.198448 -0.137387,-0.132298 -0.210321,-0.300215 -0.07124,-0.169614 -0.07124,-0.359581 0,-0.193359 0.06954,-0.35958 0.07124,-0.166221 0.212017,-0.300215 0.135691,-0.133995 0.301912,-0.198448 0.166221,-0.06615 0.371453,-0.06615 0.278165,0 0.498663,0.135691 0.220497,0.13569 0.362972,0.395199 l -1.233088,0.764955 q 0.07972,0.07463 0.178094,0.111945 0.09837,0.03731 0.215408,0.03731 0.11873,0 0.252724,-0.04919 0.133995,-0.04919 0.301912,-0.156044 z m -1.2721,-0.625873 0.802271,-0.491878 q -0.05258,-0.05936 -0.12721,-0.0882 -0.07293,-0.03053 -0.164525,-0.03053 -0.220497,0 -0.368061,0.150956 -0.145867,0.150956 -0.145867,0.38163 0,0.03223 0,0.04919 0.0017,0.01526 0.0034,0.02883 z"
           id="path191" />
        <path
           d="m 24.981916,19.504502 0.271381,-0.278166 q 0.0882,0.09329 0.183182,0.139083 0.09498,0.0441 0.205232,0.0441 0.11873,0 0.184879,-0.04749 0.06785,-0.04749 0.06785,-0.132298 0,-0.110249 -0.235762,-0.17979 -0.0865,-0.02544 -0.135691,-0.0424 -0.257812,-0.0865 -0.371453,-0.212017 -0.113641,-0.12721 -0.113641,-0.322265 0,-0.244243 0.181486,-0.398591 0.181487,-0.154349 0.471525,-0.154349 0.17979,0 0.337531,0.07293 0.159436,0.07124 0.303608,0.218801 l -0.29852,0.239155 q -0.07972,-0.0882 -0.159436,-0.130602 -0.07972,-0.0424 -0.166221,-0.0424 -0.09498,0 -0.150956,0.0441 -0.05428,0.0441 -0.05428,0.118729 0,0.07463 0.06785,0.123818 0.06784,0.04749 0.300215,0.115337 0.271382,0.08311 0.38163,0.20184 0.111945,0.118729 0.111945,0.320569 0,0.2629 -0.191663,0.425729 -0.189967,0.161133 -0.507144,0.161133 -0.196751,0 -0.369757,-0.07124 -0.173005,-0.07293 -0.313784,-0.213712 z"
           id="path193" />
        <path
           d="m 26.516917,19.504502 0.271381,-0.278166 q 0.0882,0.09329 0.183182,0.139083 0.09498,0.0441 0.205232,0.0441 0.11873,0 0.184879,-0.04749 0.06784,-0.04749 0.06784,-0.132298 0,-0.110249 -0.235762,-0.17979 -0.0865,-0.02544 -0.135691,-0.0424 -0.257812,-0.0865 -0.371453,-0.212017 -0.113641,-0.12721 -0.113641,-0.322265 0,-0.244243 0.181486,-0.398591 0.181486,-0.154349 0.471525,-0.154349 0.17979,0 0.337531,0.07293 0.159436,0.07124 0.303607,0.218801 l -0.298519,0.239155 q -0.07972,-0.0882 -0.159437,-0.130602 -0.07972,-0.0424 -0.166221,-0.0424 -0.09498,0 -0.150955,0.0441 -0.05428,0.0441 -0.05428,0.118729 0,0.07463 0.06785,0.123818 0.06785,0.04749 0.300215,0.115337 0.271381,0.08311 0.38163,0.20184 0.111945,0.118729 0.111945,0.320569 0,0.2629 -0.191663,0.425729 -0.189967,0.161133 -0.507144,0.161133 -0.196751,0 -0.369757,-0.07124 -0.173005,-0.07293 -0.313784,-0.213712 z"
           id="path195" />
        <path
           d="m 30.680921,19.250082 -0.295127,-0.315481 0.357884,-0.188271 0.212017,0.218801 q 0.05088,-0.09329 0.07633,-0.198447 0.02714,-0.106857 0.02714,-0.225586 0,-0.354492 -0.220497,-0.590254 -0.220498,-0.235763 -0.551244,-0.235763 -0.329049,0 -0.549547,0.235763 -0.220497,0.234066 -0.220497,0.586862 0,0.352795 0.220497,0.588558 0.220498,0.235762 0.549547,0.235762 0.111945,0 0.208625,-0.02714 0.09838,-0.02883 0.184878,-0.08481 z m 0.315481,0.327353 q -0.161133,0.10516 -0.339227,0.159437 -0.178094,0.05258 -0.373149,0.05258 -0.189967,0 -0.364668,-0.05088 -0.173006,-0.05088 -0.325658,-0.150956 -0.267989,-0.176398 -0.413856,-0.449475 -0.145868,-0.273078 -0.145868,-0.600431 0,-0.259509 0.09159,-0.485094 0.09329,-0.227282 0.273078,-0.407072 0.178094,-0.176398 0.403679,-0.266293 0.227282,-0.09159 0.485094,-0.09159 0.259509,0 0.48679,0.09159 0.228978,0.09159 0.407072,0.266293 0.178094,0.176398 0.269685,0.40368 0.09159,0.225585 0.09159,0.491878 0,0.220497 -0.06445,0.41216 -0.06276,0.189967 -0.189967,0.352796 l 0.437602,0.444387 -0.374845,0.20184 z"
           id="path197" />
        <path
           d="m 33.240386,17.940667 v 1.796205 l -0.408768,0.0424 v -0.274773 q -0.101768,0.137386 -0.228978,0.206928 -0.125514,0.06784 -0.278166,0.06784 -0.2629,0 -0.403679,-0.167917 -0.139083,-0.169613 -0.139083,-0.485094 v -1.156763 l 0.444387,-0.02883 v 1.053299 q 0,0.220497 0.05597,0.307 0.05597,0.08481 0.188271,0.08481 0.159436,0 0.242547,-0.108552 0.08311,-0.110249 0.08311,-0.322266 v -0.985453 z"
           id="path199" />
        <path
           d="m 33.925625,19.139833 q 0,0.122122 0.08481,0.191663 0.08481,0.06784 0.235763,0.06784 0.147563,0 0.230674,-0.06615 0.08481,-0.06785 0.08481,-0.186575 0,-0.122121 -0.08311,-0.191663 -0.08311,-0.06954 -0.228978,-0.06954 -0.152652,0 -0.239155,0.06785 -0.08481,0.06785 -0.08481,0.186575 z m 0.663188,0.63605 v -0.181486 q -0.08481,0.09159 -0.200144,0.137386 -0.115337,0.0441 -0.261204,0.0441 -0.281559,0 -0.463045,-0.174702 -0.17979,-0.176398 -0.17979,-0.447779 0,-0.273077 0.17979,-0.437602 0.17979,-0.166221 0.476614,-0.166221 0.125513,0 0.230674,0.03223 0.10516,0.03223 0.189967,0.09498 v -0.14926 q 0,-0.113641 -0.0882,-0.169613 -0.0865,-0.05597 -0.266293,-0.05597 -0.147564,0 -0.27647,0.02714 -0.128906,0.02544 -0.234066,0.07802 l 0.100072,-0.427426 q 0.145867,-0.03053 0.269685,-0.0441 0.125514,-0.01527 0.230674,-0.01527 0.352795,0 0.51732,0.142476 0.164525,0.140779 0.164525,0.444386 v 1.229697 z"
           id="path201" />
        <path
           d="m 35.336807,19.76401 v -2.452608 l 0.444386,-0.02714 v 2.452608 z"
           id="path203" />
        <path
           d="m 36.403674,17.784623 -0.295127,-0.301912 0.295127,-0.295127 0.301912,0.295127 z m -0.228978,1.979387 v -1.794509 l 0.447779,-0.02883 v 1.796205 z"
           id="path205" />
        <path
           d="m 37.897967,19.775883 q -0.01187,0 -0.03392,0.0017 -0.0882,0.0051 -0.11873,0.0051 -0.351099,0 -0.513928,-0.17979 -0.161133,-0.181486 -0.161133,-0.574989 v -0.673365 h -0.279862 l 0.106857,-0.385022 h 0.173005 v -0.288342 l 0.442691,-0.215409 v 0.503751 h 0.408768 v 0.385022 h -0.408768 v 0.676757 q 0,0.205233 0.06954,0.278166 0.06954,0.07293 0.252724,0.07293 0.05597,0 0.09498,0 0.04071,-0.0017 0.07802,-0.0034 z"
           id="path207" />
        <path
           d="m 38.727376,20.372922 -0.464741,-0.06615 0.378238,-0.82432 -0.781917,-1.468851 0.466436,-0.07293 0.471525,0.910823 q 0.02375,0.0441 0.06784,0.196752 0.0034,0.01018 0.0051,0.01696 0.01866,-0.06954 0.03562,-0.12721 0.01866,-0.05767 0.03392,-0.09668 l 0.407072,-0.900647 0.440995,0.07293 z"
           id="path209" />
      </g>
      <g
         id="g1276"
         style="fill:#000000">
        <path
           style="color:#000000;fill:#000000;-inkscape-stroke:none"
           d="m 15.039063,0.4296875 -0.0293,0.0292969 -5.3203129,5.3203125 v 3.3164062 h 5.2910159 v 5.2910159 h 3.375 V 9.0957031 h 1.853515 v -3.375 H 18.355469 V 0.4296875 Z m 0.08398,0.19921875 H 18.15625 V 5.9199219 h 1.851562 V 8.8964844 H 18.15625 V 14.1875 H 15.181641 V 8.8964844 H 9.8886719 V 5.8613281 Z m 0.05859,4.15820315 -0.171875,0.1699218 -0.962891,0.9628907 h 1.134766 z m -0.201172,0.4824218 v 0.4511719 h -0.451172 z"
           id="path1255" />
        <path
           style="color:#000000;fill:#000000;-inkscape-stroke:none"
           d="m 18.685547,0.4296875 v 0.0996094 4.8632812 h 1.851562 v 4.0332032 h -1.851562 v 1.2578127 h 3.375 V 9.0957031 h 2.546875 c 0.530456,0 0.957031,0.4285279 0.957031,0.9589849 0,0.530456 -0.426575,0.958984 -0.957031,0.958984 h -2.646485 -3.27539 v 3.375 h 5.921875 c 2.392045,0 4.332031,-1.94194 4.332031,-4.333984 -9.2e-5,-1.2811396 -0.579417,-2.4861942 -1.558594,-3.3085943 0.317442,-0.614364 0.499875,-1.2901819 0.5,-1.9824218 0,-2.392045 -1.939986,-4.3339844 -4.332031,-4.3339844 z m 0.199219,0.19921875 h 4.664062 c 2.283957,0 4.132813,1.85080885 4.132813,4.13476565 -1.24e-4,0.6837044 -0.170024,1.3550338 -0.494141,1.9570312 l -0.03906,0.074219 0.06445,0.050781 c 0.966219,0.7848474 1.527254,1.9641695 1.527343,3.2089849 0,2.283956 -1.848856,4.132812 -4.132812,4.132812 h -5.722656 v -2.974609 h 3.076171 2.646485 c 0.638544,0 1.158203,-0.519659 1.158203,-1.158203 0,-0.638545 -0.519659,-1.1582036 -1.158203,-1.1582036 H 21.861328 V 10.484375 H 18.884766 V 9.625 h 1.853515 V 5.1914062 H 18.884766 Z M 21.861328,3.6035156 V 3.7050781 5.921875 h 1.703125 0.002 c 0.631741,-0.00956 1.140697,-0.5263895 1.140625,-1.1582031 0,-0.6385444 -0.519659,-1.1601563 -1.158203,-1.1601563 z m 0.199219,0.2011719 h 1.488281 c 0.530455,0 0.957031,0.4285283 0.957031,0.9589844 6e-5,0.524139 -0.417588,0.9480664 -0.941406,0.9570312 h -1.503906 z"
           id="path1261" />
        <path
           style="color:#000000;fill:#000000;-inkscape-stroke:none"
           d="m 33.601562,0.4296875 c -2.392051,0 -4.332031,1.9419327 -4.332031,4.3339844 v 5.2910161 c 0,2.392051 1.93998,4.333984 4.332031,4.333984 h 1.853516 c 0.848505,-3.3e-5 1.667732,-0.27592 2.375,-0.742188 l 0.435547,0.419922 v 0.650391 H 9.6894531 v 1.523437 H 39.787109 V 13.453125 L 38.929687,12.59375 c 0.539256,-0.740275 0.857297,-1.621498 0.857422,-2.539062 V 4.7636719 c 0,-2.3920517 -1.939979,-4.3339844 -4.332031,-4.3339844 z m 0,0.19921875 h 1.853516 c 2.28395,0 4.132813,1.85081555 4.132813,4.13476565 v 5.2910161 c -1.24e-4,0.906908 -0.298942,1.789176 -0.84961,2.509765 l -0.05273,0.06836 0.902344,0.902343 v 2.503906 H 9.890625 v -1.123046 h 28.574219 v -0.935547 l -0.59375,-0.572266 -0.06836,0.04687 c -0.690536,0.477056 -1.508358,0.73239 -2.347656,0.732422 h -1.853516 c -2.283949,0 -4.132812,-1.848863 -4.132812,-4.132812 V 4.7636719 c 0,-2.2839501 1.848863,-4.13476565 4.132812,-4.13476565 z m -0.01758,2.97460935 c -0.631747,0.00956 -1.140698,0.5283357 -1.140625,1.1601563 v 5.2910161 c 0,0.638551 0.519652,1.158203 1.158203,1.158203 h 1.990235 l -0.857422,-0.826172 0.851562,-0.8515627 0.955079,0.9531247 0.04102,-0.175781 c 0.01857,-0.08126 0.03125,-0.166934 0.03125,-0.257812 V 4.7636719 c 0,-0.638551 -0.519652,-1.1601563 -1.158203,-1.1601563 h -1.851562 c -0.0059,-4.43e-5 -0.01176,-4.44e-5 -0.01758,0 z m 0.0039,0.2011719 c 0.0048,-3.65e-5 0.0088,-3.66e-5 0.01367,0 h 1.853516 c 0.53045,0 0.957031,0.4285349 0.957031,0.9589844 v 5.2910161 c 0,0.0066 -0.0018,0.01297 -0.002,0.01953 l -0.824219,-0.8222659 -1.138671,1.1367189 0.648437,0.625 h -1.494141 c -0.530449,0 -0.957031,-0.428535 -0.957031,-0.958984 V 4.7636719 c -6.1e-5,-0.5247811 0.418639,-0.951041 0.94336,-0.9589844 z"
           id="path1267" />
      </g>
    </g>
  </g>
</svg>
