<svg width="43" height="43" viewBox="0 0 43 43" fill="none" xmlns="http://www.w3.org/2000/svg">
<path d="M5.375 13.4375H37.625C39.1085 13.4375 40.3125 12.2335 40.3125 10.75C40.3125 9.2665 39.1085 8.0625 37.625 8.0625H5.375C3.8915 8.0625 2.6875 9.2665 2.6875 10.75C2.6875 12.2335 3.8915 13.4375 5.375 13.4375ZM37.625 18.8125H5.375C3.8915 18.8125 2.6875 20.0165 2.6875 21.5C2.6875 22.9835 3.8915 24.1875 5.375 24.1875H37.625C39.1085 24.1875 40.3125 22.9835 40.3125 21.5C40.3125 20.0165 39.1085 18.8125 37.625 18.8125ZM37.625 29.5625H5.375C3.8915 29.5625 2.6875 30.7665 2.6875 32.25C2.6875 33.7335 3.8915 34.9375 5.375 34.9375H37.625C39.1085 34.9375 40.3125 33.7335 40.3125 32.25C40.3125 30.7665 39.1085 29.5625 37.625 29.5625Z" fill="#831F01"/>
</svg>
